<svg width="60" height="60" viewBox="0 0 60 60" fill="none" xmlns="http://www.w3.org/2000/svg">
<rect width="60" height="60" fill="white"/>
<g clip-path="url(#clip0)">
<path fill-rule="evenodd" clip-rule="evenodd" d="M52.542 23.6783C52.4174 23.3976 52.1512 23.2369 51.8362 23.2369H47.069C46.6373 23.2369 46.2886 23.5986 46.2886 24.04V27.1706H43.0827V24.04C43.0827 23.5986 42.734 23.2369 42.3018 23.2369H35.9734V17.8191C35.9734 17.3772 35.6163 17.0169 35.1926 17.0169H26.472V13.6056H32.8425C33.2742 13.6056 33.6229 13.2447 33.6229 12.8024C33.6229 12.361 33.2742 12.0002 32.8425 12.0002H18.6573C18.2336 12.0002 17.8764 12.361 17.8764 12.8024C17.8764 13.2443 18.2336 13.6056 18.6573 13.6056H24.9107V17.0169H16.1572C15.734 17.0169 15.3768 17.3777 15.3768 17.8191V21.5518H11.7472C11.3156 21.5518 10.9668 21.9126 10.9668 22.3541V32.8293C10.9247 32.8293 10.8834 32.8293 10.8422 32.8293H7.56172V23.4777C7.56172 23.0363 7.213 22.6755 6.78088 22.6755C6.34919 22.6755 6.00003 23.0363 6.00003 23.4777V43.7862C6.00003 44.2276 6.34919 44.5884 6.78088 44.5884C7.21256 44.5884 7.56172 44.2276 7.56172 43.7862V34.4346H10.8422C10.8834 34.4346 10.9247 34.4346 10.9668 34.4346V44.2276C10.9668 44.669 11.3156 45.0298 11.7472 45.0298H18.3831L24.7528 47.9191C24.869 47.9599 24.952 48.0002 25.0682 48.0002H42.301C42.7331 48.0002 43.0818 47.6394 43.0818 47.198V41.7394H46.2877V44.8696C46.2877 45.311 46.6364 45.6718 47.0681 45.6718H51.8353C52.1507 45.6718 52.4577 45.4717 52.5744 45.1507L54.9573 38.3684C54.9995 38.2878 54.9995 38.2068 54.9995 38.0873V28.8566C54.9995 28.7362 54.9573 28.6162 54.9245 28.4953L52.5411 23.6792L52.542 23.6783ZM53.4387 38.0062L51.2878 44.1067H47.8494V40.9761C47.8494 40.5347 47.5007 40.1739 47.069 40.1739H42.3431C41.9114 40.1739 41.5543 40.5347 41.5543 40.9761V46.3939H25.2683L18.8977 43.5046C18.7815 43.4648 18.6985 43.4245 18.5823 43.4245H12.5281V23.1572H16.1572C16.5889 23.1572 16.9376 22.7955 16.9376 22.3541V18.6621H34.4033V24.0799C34.4033 24.5213 34.7605 24.8821 35.1922 24.8821H41.5538V28.0127C41.5538 28.4541 41.911 28.8158 42.3427 28.8158H47.1098C47.5331 28.8158 47.8902 28.4541 47.8902 28.0127V24.8821H51.3619L53.4382 29.1359V38.0058L53.4387 38.0062Z" fill="#ED1C24"/>
</g>
<defs>
<clipPath id="clip0">
<path d="M6 12H55V48H6V12Z" fill="white"/>
</clipPath>
</defs>
</svg>
