<svg width="60" height="60" viewBox="0 0 60 60" fill="none" xmlns="http://www.w3.org/2000/svg">
<rect width="60" height="60" fill="white"/>
<g clip-path="url(#clip0)">
<path fill-rule="evenodd" clip-rule="evenodd" d="M27.0913 49.9989C24.5704 49.9989 22.505 47.9516 22.505 45.4527V42.725H20.6705C18.6538 42.725 17.0015 41.0872 17.0015 39.0881V34.542C17.0015 32.5429 18.6538 30.9051 20.6705 30.9051H22.505V14.539C22.505 12.0401 24.5704 9.99283 27.0913 9.99283H28.9258C31.4468 9.99283 33.5121 12.0401 33.5121 14.539V30.9051H35.3466C36.8774 30.9051 38.1956 31.8504 38.7484 33.1811H39.4773C40.7347 33.1811 41.7674 34.2108 41.7674 35.4512V38.1789C41.7674 39.4253 40.7287 40.4489 39.4773 40.4489H38.7484C38.2017 41.7797 36.8774 42.719 35.3527 42.719H33.5182V45.4467C33.5182 47.9456 31.4528 49.9928 28.9319 49.9928H27.0974L27.0913 49.9989ZM27.0913 30.9051V14.539H28.9258V30.9051H31.6776V14.539C31.6776 13.0216 30.4566 11.8113 28.9258 11.8113H27.0913C25.5605 11.8113 24.3395 13.0216 24.3395 14.539V30.9051H27.0913ZM27.0913 45.4527V42.725H24.3395V45.4527C24.3395 46.9701 25.5605 48.1804 27.0913 48.1804H28.9258C30.4566 48.1804 31.6776 46.9701 31.6776 45.4527V42.725H28.9258V45.4527H27.0913ZM38.0984 17.2727V15.4542H39.9329V17.2727H38.0984ZM38.0984 24.0889V22.2704H39.9329V24.0889H38.0984ZM38.0984 30.9051V29.0866H39.9329V30.9051H38.0984ZM38.0984 44.5435V42.725H39.9329V44.5435H38.0984ZM39.0156 34.9996V38.6365H39.4773C39.7446 38.6365 39.9329 38.4438 39.9329 38.1849V35.4572C39.9329 35.1923 39.7385 35.0056 39.4773 35.0056H39.0156V34.9996ZM22.505 40.9066H24.3395H31.6776H33.5121H35.3466C36.3793 40.9066 37.1811 40.1118 37.1811 39.0881V34.542C37.1811 33.5183 36.3793 32.7235 35.3466 32.7235H20.6705C19.6378 32.7235 18.836 33.5183 18.836 34.542V39.0881C18.836 40.1118 19.6378 40.9066 20.6705 40.9066H22.505V40.9066Z" fill="#ED1C24"/>
</g>
<defs>
<clipPath id="clip0">
<path d="M17 10H41.7619V50H17V10Z" fill="white"/>
</clipPath>
</defs>
</svg>
