<svg width="60" height="60" viewBox="0 0 60 60" fill="none" xmlns="http://www.w3.org/2000/svg">
<rect width="60" height="60" fill="white"/>
<g clip-path="url(#clip0)">
<path fill-rule="evenodd" clip-rule="evenodd" d="M47.0038 50.6286C46.9932 50.6371 46.9804 50.6435 46.9698 50.6541C46.9016 50.7159 46.8207 50.7691 46.742 50.8074C46.742 50.8096 46.742 50.8117 46.7313 50.8138C46.7313 50.8159 46.7313 50.8181 46.7207 50.8202C46.5951 50.8798 46.4482 50.9096 46.312 50.9096C46.0714 50.9096 45.8436 50.8266 45.6499 50.6627L42.9719 48.3292C42.561 47.9673 42.5163 47.3328 42.8803 46.9176C43.2444 46.5003 43.8724 46.4578 44.2939 46.8197L46.2545 48.5229C49.7755 44.6012 51.7808 39.6341 51.9852 34.3647H49.0006C48.4429 34.3647 47.998 33.9176 47.998 33.364C47.998 32.8105 48.4429 32.3634 49.0006 32.3634H51.7574C51.5062 26.8384 49.2497 21.8309 45.6946 18.0539L43.6999 20.0553C43.5062 20.249 43.2444 20.3491 42.9932 20.3491C42.7313 20.3491 42.4801 20.2511 42.2758 20.0553C41.8883 19.6635 41.8883 19.029 42.2758 18.6394L44.2577 16.6551C40.5429 13.3466 35.7233 11.258 30.4247 11.0238V13.7809C30.4247 14.3345 29.9692 14.7816 29.4221 14.7816C28.8643 14.7816 28.4194 14.3345 28.4194 13.7809V11.0259C23.2336 11.2707 18.5162 13.2827 14.8249 16.4657L16.7727 18.4074C17.1602 18.797 17.1602 19.4336 16.7727 19.8232C16.579 20.0191 16.3172 20.117 16.066 20.117C15.8041 20.117 15.5529 20.0191 15.3486 19.8232L13.3645 17.8368C11.951 19.2952 10.7333 20.9431 9.74132 22.74C8.17878 25.6249 7.2336 28.8887 7.08671 32.357H9.84351C10.3906 32.357 10.8462 32.8041 10.8462 33.3598C10.8462 33.9133 10.3906 34.3604 9.84351 34.3604H7.02923C7.22295 39.6831 9.27299 44.6906 12.8515 48.6273L14.8121 46.8325C15.223 46.4578 15.8488 46.4833 16.2256 46.8921C16.6024 47.3009 16.5663 47.9332 16.1682 48.3079L13.5242 50.7308C13.3433 50.9075 13.0921 50.9948 12.8515 50.9948C12.7365 50.9948 12.6131 50.9714 12.5088 50.9288C12.3257 50.8862 12.1682 50.8138 12.0298 50.6776C7.49331 46.066 4.99836 39.9662 4.99836 33.4982C4.99836 29.2592 6.07979 25.2672 7.98294 21.7862C12.1085 14.1748 20.1639 8.99478 29.4178 8.99478C29.4178 8.99478 29.4285 8.99478 29.4412 8.99478L29.4519 8.99691C29.4625 8.99691 29.4753 8.99478 29.4753 8.99478C29.4859 8.99478 29.4859 8.99478 29.4987 8.99478C43.0123 8.99478 53.999 19.9871 53.999 33.4982C53.999 39.9194 51.5382 45.9894 47.0485 50.5903C47.0379 50.6052 47.0251 50.6137 47.0038 50.6243V50.6286ZM29.718 31.0221C30.5163 31.0221 31.2677 31.3286 31.8383 31.8865C32.0788 32.1121 36.7728 38.9336 39.553 42.981C39.6893 43.1769 39.668 43.443 39.4955 43.6133C39.404 43.7134 39.2678 43.7645 39.1422 43.7645C39.0506 43.7645 38.9484 43.7368 38.8675 43.6815C34.7547 41.001 27.8255 36.4682 27.587 36.2404C26.3907 35.0694 26.3672 33.1383 27.5423 31.9376C28.1129 31.3457 28.8877 31.0199 29.718 31.0199V31.0221Z" fill="#ED1C24"/>
</g>
<defs>
<clipPath id="clip0">
<path d="M5 9H54V51H5V9Z" fill="white"/>
</clipPath>
</defs>
</svg>
