<svg width="60" height="60" viewBox="0 0 60 60" fill="none" xmlns="http://www.w3.org/2000/svg">
<rect width="60" height="60" fill="white"/>
<g clip-path="url(#clip0)">
<path fill-rule="evenodd" clip-rule="evenodd" d="M32.2416 36.9168C31.4621 37.0993 30.6577 36.9707 29.9736 36.5602C29.6958 36.3943 23.5677 30.821 19.9397 27.5118C19.7615 27.3501 19.7241 27.0888 19.8485 26.8815C19.919 26.7612 20.0351 26.6824 20.1636 26.6534C20.2549 26.6327 20.3544 26.6368 20.4456 26.67C25.0603 28.3453 32.8428 31.1818 33.1206 31.3476C34.5552 32.2143 35.0154 34.0887 34.1488 35.5235C33.7218 36.2326 33.0418 36.7261 32.2374 36.9127L32.2416 36.9168Z" fill="url(#paint0_linear)"/>
<path fill-rule="evenodd" clip-rule="evenodd" d="M16.8548 48.5984L17.4851 47.5078C17.5058 47.8022 17.398 48.1008 17.1658 48.3123L16.859 48.5942L16.8548 48.5984Z" fill="url(#paint1_linear)"/>
<path fill-rule="evenodd" clip-rule="evenodd" d="M17.4604 47.8065L17.1826 48.2958L17.1658 48.3123L15.3997 49.9338L17.2489 46.9232C17.4645 47.1762 17.535 47.5038 17.4604 47.8065Z" fill="url(#paint2_linear)"/>
<path fill-rule="evenodd" clip-rule="evenodd" d="M17.3272 47.035L15.7848 49.5812L14.5244 50.7382C14.3751 50.875 14.1927 50.9621 14.0019 50.9911L16.8338 46.6411C16.9748 46.695 17.1075 46.7821 17.2153 46.9023C17.2526 46.9438 17.2899 46.9894 17.3189 47.0392L17.3272 47.035Z" fill="url(#paint3_linear)"/>
<path fill-rule="evenodd" clip-rule="evenodd" d="M16.9544 46.6909L14.2387 50.9207C14.1143 50.9746 13.9816 50.9994 13.8489 50.9994C13.7328 50.9994 13.6167 50.9746 13.5048 50.9331C13.4385 50.9165 13.3763 50.8958 13.3141 50.8709L16.262 46.5997C16.4942 46.5457 16.7388 46.5789 16.9544 46.6909Z" fill="url(#paint4_linear)"/>
<path fill-rule="evenodd" clip-rule="evenodd" d="M16.4317 46.5747L13.4713 50.9248C13.3096 50.8792 13.1562 50.8087 13.0277 50.6801L12.8162 50.4603L14.7649 47.7939L15.8056 46.836C15.9839 46.6743 16.2078 46.583 16.4317 46.5747Z" fill="url(#paint5_linear)"/>
<path fill-rule="evenodd" clip-rule="evenodd" d="M15.2706 47.3338L12.9321 50.5807C12.7414 50.3858 12.5589 50.1909 12.3765 49.9877L13.6245 48.3705C13.7033 48.4576 13.7779 48.5446 13.8567 48.6317L15.2706 47.3296V47.3338Z" fill="url(#paint6_linear)"/>
<path fill-rule="evenodd" clip-rule="evenodd" d="M13.7203 48.4865L12.4848 50.1121C12.3023 49.913 12.124 49.714 11.9458 49.5108L13.2352 47.9267C13.3928 48.1174 13.5545 48.304 13.7203 48.4865Z" fill="url(#paint7_linear)"/>
<path fill-rule="evenodd" clip-rule="evenodd" d="M13.3308 48.0386L12.0538 49.631C11.8755 49.4278 11.7055 49.2246 11.5355 49.0173L12.8664 47.4705C13.0198 47.6613 13.1732 47.852 13.3349 48.0386H13.3308Z" fill="url(#paint8_linear)"/>
<path fill-rule="evenodd" clip-rule="evenodd" d="M12.9577 47.5825L11.6392 49.1376C11.4692 48.9344 11.3034 48.7229 11.1375 48.5156L12.5099 47.0061C12.655 47.201 12.8043 47.3918 12.9577 47.5825Z" fill="url(#paint9_linear)"/>
<path fill-rule="evenodd" clip-rule="evenodd" d="M12.5928 47.1222L11.2328 48.6441C11.067 48.4367 10.9094 48.2252 10.7518 48.0137L12.1616 46.5375C12.3025 46.7365 12.4476 46.9273 12.5928 47.1222Z" fill="url(#paint10_linear)"/>
<path fill-rule="evenodd" clip-rule="evenodd" d="M12.2483 46.6577L10.8469 48.1423C10.6893 47.9308 10.5359 47.7193 10.3866 47.5037L11.8337 46.0647C11.9664 46.2638 12.1073 46.4628 12.2483 46.6577Z" fill="url(#paint11_linear)"/>
<path fill-rule="evenodd" clip-rule="evenodd" d="M11.9128 46.185L10.4741 47.6322C10.3248 47.4208 10.1755 47.2051 10.0304 46.9853L11.5148 45.5879C11.6433 45.791 11.776 45.9901 11.9087 46.185H11.9128Z" fill="url(#paint12_linear)"/>
<path fill-rule="evenodd" clip-rule="evenodd" d="M11.5977 45.704L10.1217 47.1098C9.97658 46.8941 9.8356 46.6744 9.69878 46.4546L11.2204 45.0944C11.3448 45.2976 11.4692 45.5008 11.5977 45.6998V45.704Z" fill="url(#paint13_linear)"/>
<path fill-rule="evenodd" clip-rule="evenodd" d="M11.2909 45.2229L9.77751 46.5913C9.64069 46.3715 9.50386 46.1517 9.37533 45.932L10.9302 44.6133C11.0463 44.8165 11.1665 45.0197 11.2909 45.2229Z" fill="url(#paint14_linear)"/>
<path fill-rule="evenodd" clip-rule="evenodd" d="M11.0004 44.7336L9.45387 46.0605C9.32119 45.8408 9.19266 45.621 9.06827 45.397L10.6604 44.1198C10.7724 44.3272 10.8843 44.5304 11.0004 44.7336Z" fill="url(#paint15_linear)"/>
<path fill-rule="evenodd" clip-rule="evenodd" d="M10.7263 44.2443L9.14247 45.5298C9.01808 45.31 8.8937 45.0861 8.7776 44.858L10.3988 43.6223C10.5024 43.8296 10.6102 44.037 10.7222 44.2402L10.7263 44.2443Z" fill="url(#paint16_linear)"/>
<path fill-rule="evenodd" clip-rule="evenodd" d="M10.4652 43.7509L8.85233 44.9949C8.73209 44.771 8.62014 44.5471 8.50819 44.319L10.1625 43.1288C10.262 43.3362 10.3616 43.5435 10.4694 43.7509H10.4652Z" fill="url(#paint17_linear)"/>
<path fill-rule="evenodd" clip-rule="evenodd" d="M10.2206 43.2574L8.57453 44.46C8.46258 44.2361 8.35478 44.008 8.24698 43.7841L9.93034 42.6354C10.0216 42.8427 10.1211 43.0542 10.2206 43.2574Z" fill="url(#paint18_linear)"/>
<path fill-rule="evenodd" clip-rule="evenodd" d="M9.98891 42.7556L8.31384 43.9126C8.20603 43.6887 8.10653 43.4606 8.00702 43.2325L9.7194 42.1295C9.80647 42.341 9.89769 42.5483 9.98891 42.7556Z" fill="url(#paint19_linear)"/>
<path fill-rule="evenodd" clip-rule="evenodd" d="M9.76876 42.2579L8.06467 43.3734C7.96516 43.1495 7.8698 42.9214 7.77858 42.6892L9.51999 41.6317C9.60291 41.8432 9.68584 42.0506 9.77291 42.2579H9.76876Z" fill="url(#paint20_linear)"/>
<path fill-rule="evenodd" clip-rule="evenodd" d="M9.56583 41.7563L7.83271 42.8262C7.74149 42.5981 7.65027 42.37 7.5632 42.1419L9.32949 41.1301C9.40412 41.3416 9.4829 41.5489 9.56583 41.7563Z" fill="url(#paint21_linear)"/>
<path fill-rule="evenodd" clip-rule="evenodd" d="M9.37513 41.2545L7.61299 42.2787C7.52592 42.0506 7.443 41.8226 7.36422 41.5945L9.15538 40.6283C9.22587 40.8398 9.29636 41.0471 9.37513 41.2545Z" fill="url(#paint22_linear)"/>
<path fill-rule="evenodd" clip-rule="evenodd" d="M9.19673 40.7526L7.40971 41.7313C7.32679 41.5032 7.25216 41.2751 7.17752 41.047L8.99357 40.1264C9.05991 40.3379 9.12625 40.5453 9.19673 40.7526Z" fill="url(#paint23_linear)"/>
<path fill-rule="evenodd" clip-rule="evenodd" d="M9.03057 40.2508L7.22282 41.1838C7.14819 40.9558 7.07771 40.7277 7.00722 40.4996L8.844 39.6246C8.90204 39.8361 8.96424 40.0435 9.03057 40.2508Z" fill="url(#paint24_linear)"/>
<path fill-rule="evenodd" clip-rule="evenodd" d="M8.88158 39.7492L7.04895 40.6324C6.97846 40.4044 6.91627 40.1763 6.85408 39.9482L8.71158 39.123C8.76548 39.3345 8.82353 39.5418 8.88158 39.7492Z" fill="url(#paint25_linear)"/>
<path fill-rule="evenodd" clip-rule="evenodd" d="M8.74487 39.2473L6.89151 40.085C6.82932 39.8569 6.76713 39.6288 6.71322 39.4008L8.59146 38.6212C8.64122 38.8285 8.69097 39.04 8.74487 39.2473Z" fill="url(#paint26_linear)"/>
<path fill-rule="evenodd" clip-rule="evenodd" d="M8.62046 38.7456L6.74637 39.5377C6.68832 39.3096 6.63442 39.0815 6.58466 38.8535L8.47949 38.1236C8.52095 38.331 8.5707 38.5383 8.61631 38.7456H8.62046Z" fill="url(#paint27_linear)"/>
<path fill-rule="evenodd" clip-rule="evenodd" d="M8.50419 38.2479L6.61351 38.9902C6.56376 38.7621 6.51401 38.5382 6.4684 38.3101L8.3798 37.6259C8.41712 37.8332 8.45858 38.0406 8.50419 38.2479Z" fill="url(#paint28_linear)"/>
<path fill-rule="evenodd" clip-rule="evenodd" d="M8.40508 37.7503L6.49782 38.447C6.45221 38.2231 6.41075 37.995 6.36929 37.7669L8.29728 37.1324C8.33045 37.3398 8.36777 37.5471 8.40508 37.7503Z" fill="url(#paint29_linear)"/>
<path fill-rule="evenodd" clip-rule="evenodd" d="M8.3175 37.2527L6.39365 37.8996C6.35219 37.6757 6.31487 37.4476 6.2817 37.2237L8.22628 36.639C8.2553 36.8463 8.28847 37.0495 8.32164 37.2527H8.3175Z" fill="url(#paint30_linear)"/>
<path fill-rule="evenodd" clip-rule="evenodd" d="M8.23888 36.7633L6.29845 37.3605C6.26528 37.1366 6.23211 36.9126 6.20308 36.6887L8.1601 36.1538C8.18498 36.357 8.20985 36.5643 8.23888 36.7675V36.7633Z" fill="url(#paint31_linear)"/>
<path fill-rule="evenodd" clip-rule="evenodd" d="M8.17664 36.27L6.22378 36.8173C6.19475 36.5934 6.16573 36.3695 6.14085 36.1455L8.11031 35.6562C8.13104 35.8594 8.15177 36.0626 8.17664 36.2658V36.27Z" fill="url(#paint32_linear)"/>
<path fill-rule="evenodd" clip-rule="evenodd" d="M8.12256 35.7848L6.15725 36.2866C6.13238 36.0668 6.11164 35.8429 6.09091 35.6189L8.06866 35.1794C8.08524 35.3826 8.10183 35.5816 8.12256 35.7848Z" fill="url(#paint33_linear)"/>
<path fill-rule="evenodd" clip-rule="evenodd" d="M8.07744 35.2995L6.09969 35.7515C6.07896 35.5318 6.06238 35.312 6.04994 35.088L8.03598 34.6982C8.04842 34.8973 8.06085 35.1005 8.07329 35.2995H8.07744ZM9.71934 34.3665L11.6183 33.9933C11.4359 34.2213 11.1539 34.3665 10.8388 34.3665H9.71934Z" fill="url(#paint34_linear)"/>
<path fill-rule="evenodd" clip-rule="evenodd" d="M11.5018 34.1178L10.2621 34.3708H8.01901C8.02316 34.52 8.03145 34.6693 8.03974 34.8228L6.05371 35.225C6.03712 35.0052 6.02468 34.7854 6.01639 34.5657L11.8128 33.5746C11.7672 33.7902 11.6552 33.981 11.4935 34.1219L11.5018 34.1178Z" fill="url(#paint35_linear)"/>
<path fill-rule="evenodd" clip-rule="evenodd" d="M11.7963 33.6699L6.02893 34.69C6.01649 34.4744 6.01234 34.2546 6.00819 34.0348L11.8295 33.1847C11.8419 33.2428 11.8461 33.3008 11.8461 33.363C11.8461 33.4709 11.8295 33.5704 11.8005 33.6658L11.7963 33.6699Z" fill="url(#paint36_linear)"/>
<path fill-rule="evenodd" clip-rule="evenodd" d="M11.8379 33.2801L6.00829 34.1675C6.00415 33.9519 6 33.7362 6 33.5164L11.6845 32.8281C11.7674 32.9608 11.8213 33.1142 11.8379 33.2801Z" fill="url(#paint37_linear)"/>
<path fill-rule="evenodd" clip-rule="evenodd" d="M11.7342 32.9151L6 33.6449V33.504C6 33.3339 6 33.1681 6.00415 33.0022L11.3196 32.488C11.4979 32.5875 11.643 32.7368 11.7342 32.9193V32.9151Z" fill="url(#paint38_linear)"/>
<path fill-rule="evenodd" clip-rule="evenodd" d="M11.4481 32.5709L6.0041 33.1308C6.00824 32.9151 6.01239 32.7036 6.02068 32.488L8.0855 32.3387V32.3636H10.8427C11.0708 32.3636 11.2822 32.4382 11.4522 32.5709H11.4481Z" fill="url(#paint39_linear)"/>
<path fill-rule="evenodd" clip-rule="evenodd" d="M9.23385 32.3636L6.01639 32.6165C6.02468 32.405 6.03297 32.1936 6.04541 31.9821L8.11023 31.8825C8.09779 32.0443 8.0895 32.206 8.08535 32.3677H9.23385V32.3636Z" fill="url(#paint40_linear)"/>
<path fill-rule="evenodd" clip-rule="evenodd" d="M8.10246 31.9945L6.03765 32.1065C6.05009 31.895 6.06252 31.6835 6.08326 31.4761L8.14392 31.4264C8.12734 31.6171 8.1149 31.8037 8.10246 31.9945Z" fill="url(#paint41_linear)"/>
<path fill-rule="evenodd" clip-rule="evenodd" d="M8.13524 31.5385L6.07043 31.6007C6.08701 31.3933 6.1036 31.1818 6.12847 30.9745H8.18914C8.16841 31.1611 8.15183 31.3519 8.13524 31.5385Z" fill="url(#paint42_linear)"/>
<path fill-rule="evenodd" clip-rule="evenodd" d="M8.17694 31.0863L6.11627 31.0988C6.137 30.8914 6.15773 30.6841 6.18675 30.4768L8.24328 30.5265C8.2184 30.7131 8.19767 30.8997 8.18108 31.0863H8.17694Z" fill="url(#paint43_linear)"/>
<path fill-rule="evenodd" clip-rule="evenodd" d="M8.22683 30.6385L6.1703 30.6011C6.19518 30.3938 6.22006 30.1906 6.24908 29.9874L8.29731 30.0828C8.26829 30.2653 8.24341 30.4519 8.22268 30.6385H8.22683Z" fill="url(#paint44_linear)"/>
<path fill-rule="evenodd" clip-rule="evenodd" d="M8.28491 30.1949L6.23253 30.112C6.26156 29.9088 6.29058 29.7056 6.32375 29.5024L8.36784 29.6475C8.33881 29.83 8.30979 30.0124 8.28077 30.199L8.28491 30.1949Z" fill="url(#paint45_linear)"/>
<path fill-rule="evenodd" clip-rule="evenodd" d="M8.35524 29.7553L6.31116 29.6226C6.34433 29.4194 6.3775 29.2203 6.41481 29.0171L8.4506 29.2079C8.41743 29.3903 8.38426 29.5686 8.35524 29.7511V29.7553Z" fill="url(#paint46_linear)"/>
<path fill-rule="evenodd" clip-rule="evenodd" d="M8.42972 29.3198L6.38978 29.1415C6.42709 28.9425 6.46441 28.7434 6.50587 28.5444L8.53337 28.7849C8.49605 28.9632 8.45874 29.1457 8.42557 29.324L8.42972 29.3198Z" fill="url(#paint47_linear)"/>
<path fill-rule="evenodd" clip-rule="evenodd" d="M8.51234 28.8886L6.48069 28.6605C6.52215 28.4615 6.56361 28.2624 6.60922 28.0675L8.62843 28.3536C8.58697 28.532 8.54965 28.7103 8.51234 28.8886Z" fill="url(#paint48_linear)"/>
<path fill-rule="evenodd" clip-rule="evenodd" d="M8.60392 28.4573L6.58057 28.1836C6.62618 27.9887 6.67178 27.7896 6.71739 27.5947L8.72416 27.9265C8.67855 28.1007 8.63709 28.279 8.59977 28.4573H8.60392Z" fill="url(#paint49_linear)"/>
<path fill-rule="evenodd" clip-rule="evenodd" d="M8.70365 28.0343L6.69274 27.715C6.73835 27.5201 6.7881 27.3252 6.842 27.1345L8.84048 27.5118C8.79487 27.686 8.74926 27.8602 8.70365 28.0343Z" fill="url(#paint50_linear)"/>
<path fill-rule="evenodd" clip-rule="evenodd" d="M8.81081 27.6154L6.81233 27.2463C6.86209 27.0514 6.91599 26.8607 6.97403 26.6699L8.96007 27.0929C8.91032 27.2629 8.86056 27.4371 8.81496 27.6112L8.81081 27.6154Z" fill="url(#paint51_linear)"/>
<path fill-rule="evenodd" clip-rule="evenodd" d="M8.92288 27.2008L6.9327 26.7861C6.9866 26.5954 7.04465 26.4046 7.10269 26.218L9.07629 26.6866C9.02239 26.8566 8.97264 27.0267 8.92288 27.2008Z" fill="url(#paint52_linear)"/>
<path fill-rule="evenodd" clip-rule="evenodd" d="M9.04715 26.7861L7.07355 26.3258C7.1316 26.1351 7.18964 25.9485 7.25598 25.7619L9.213 26.2761C9.15495 26.4461 9.10105 26.6161 9.05129 26.7861H9.04715Z" fill="url(#paint53_linear)"/>
<path fill-rule="evenodd" clip-rule="evenodd" d="M9.17633 26.3798L7.21517 25.878C7.27736 25.6914 7.33956 25.5048 7.4059 25.3182L9.35047 25.878C9.29243 26.0439 9.23438 26.2139 9.17633 26.3798Z" fill="url(#paint54_linear)"/>
<path fill-rule="evenodd" clip-rule="evenodd" d="M9.31294 25.9775L7.36422 25.4301C7.43056 25.2435 7.4969 25.061 7.56324 24.8786L9.49123 25.4799C9.42903 25.6457 9.36684 25.8116 9.30879 25.9775H9.31294Z" fill="url(#paint55_linear)"/>
<path fill-rule="evenodd" clip-rule="evenodd" d="M9.45769 25.5794L7.52556 24.9864C7.5919 24.8039 7.66238 24.6215 7.73701 24.439L9.64842 25.0859C9.58208 25.2476 9.51989 25.4135 9.45769 25.5794Z" fill="url(#paint56_linear)"/>
<path fill-rule="evenodd" clip-rule="evenodd" d="M9.61141 25.1854L7.69586 24.551C7.76635 24.3685 7.84098 24.1902 7.91561 24.0119L9.80629 24.7003C9.73995 24.862 9.67361 25.0237 9.60727 25.1896L9.61141 25.1854Z" fill="url(#paint57_linear)"/>
<path fill-rule="evenodd" clip-rule="evenodd" d="M9.76923 24.7957L7.87026 24.1197C7.94489 23.9414 8.02367 23.7631 8.10245 23.5848L9.97654 24.3146C9.90605 24.4764 9.83557 24.6339 9.76923 24.7957Z" fill="url(#paint58_linear)"/>
<path fill-rule="evenodd" clip-rule="evenodd" d="M9.93032 24.41L8.05209 23.6884C8.13087 23.5101 8.20964 23.336 8.29257 23.1618L10.1459 23.9331C10.0713 24.0907 10.0008 24.2483 9.93032 24.41Z" fill="url(#paint59_linear)"/>
<path fill-rule="evenodd" clip-rule="evenodd" d="M10.1045 24.0284L8.24288 23.2654C8.3258 23.0912 8.40873 22.917 8.49165 22.7429L10.3284 23.5557C10.2538 23.7132 10.1792 23.8708 10.1045 24.0284Z" fill="url(#paint60_linear)"/>
<path fill-rule="evenodd" clip-rule="evenodd" d="M10.2828 23.6511L8.44186 22.8466C8.52479 22.6725 8.61186 22.5024 8.69893 22.3283L10.5108 23.1825C10.432 23.3359 10.3533 23.4935 10.2786 23.647L10.2828 23.6511Z" fill="url(#paint61_linear)"/>
<path fill-rule="evenodd" clip-rule="evenodd" d="M10.4651 23.2737L8.64495 22.4319C8.73202 22.2619 8.82323 22.0919 8.91445 21.9218L10.7056 22.8176C10.6227 22.971 10.5439 23.1244 10.4651 23.2779V23.2737Z" fill="url(#paint62_linear)"/>
<path fill-rule="evenodd" clip-rule="evenodd" d="M10.6606 22.9087L8.86109 22.0254L8.98548 21.7932L9.13474 21.5195L10.9052 22.4526C10.8513 22.5521 10.7932 22.6475 10.7393 22.747L10.6523 22.9087H10.6606Z" fill="url(#paint63_linear)"/>
<path fill-rule="evenodd" clip-rule="evenodd" d="M10.8592 22.5439L9.08466 21.6192C9.17588 21.4533 9.27124 21.2833 9.36661 21.1174L11.1163 22.0919C11.0292 22.2412 10.9422 22.3905 10.8592 22.5398V22.5439Z" fill="url(#paint64_linear)"/>
<path fill-rule="evenodd" clip-rule="evenodd" d="M11.0629 22.1831L9.30491 21.2169C9.40027 21.0511 9.49978 20.8852 9.59929 20.7235L11.3283 21.7394C11.237 21.8846 11.15 22.0339 11.0629 22.1831Z" fill="url(#paint65_linear)"/>
<path fill-rule="evenodd" clip-rule="evenodd" d="M11.278 21.8265L9.54077 20.823C9.64028 20.6571 9.73979 20.4954 9.84344 20.3336L11.5517 21.3869C11.4605 21.5321 11.3651 21.6772 11.278 21.8265Z" fill="url(#paint66_linear)"/>
<path fill-rule="evenodd" clip-rule="evenodd" d="M11.4939 21.4782L9.7815 20.4332C9.88515 20.2715 9.98881 20.1098 10.0925 19.9522L11.7758 21.0469C11.6805 21.1879 11.5851 21.3331 11.4939 21.4782Z" fill="url(#paint67_linear)"/>
<path fill-rule="evenodd" clip-rule="evenodd" d="M11.7221 21.1298L10.0304 20.0433C10.1341 19.8816 10.2419 19.724 10.3497 19.5664L12.0082 20.6985C11.9087 20.8395 11.8133 20.9805 11.7179 21.1257L11.7221 21.1298Z" fill="url(#paint68_linear)"/>
<path fill-rule="evenodd" clip-rule="evenodd" d="M11.9495 20.7856L10.2827 19.6618C10.3905 19.5042 10.4983 19.3466 10.6102 19.1932L12.248 20.3626C12.1485 20.5036 12.049 20.6446 11.9495 20.7856Z" fill="url(#paint69_linear)"/>
<path fill-rule="evenodd" clip-rule="evenodd" d="M12.1907 20.4498L10.5488 19.2887C10.6607 19.1311 10.7727 18.9777 10.8846 18.8242L12.4933 20.0351C12.3897 20.172 12.2902 20.3129 12.1865 20.4498H12.1907Z" fill="url(#paint70_linear)"/>
<path fill-rule="evenodd" clip-rule="evenodd" d="M12.4311 20.1138L10.8141 18.9153C10.926 18.7619 11.0421 18.6085 11.1624 18.4592L12.7462 19.7074C12.6384 19.8442 12.5348 19.9811 12.4311 20.1179V20.1138Z" fill="url(#paint71_linear)"/>
<path fill-rule="evenodd" clip-rule="evenodd" d="M12.6838 19.7862L11.0958 18.5504C11.2119 18.397 11.3321 18.2477 11.4524 18.0984L13.0072 19.3798C12.8994 19.5125 12.7916 19.6493 12.6879 19.7862H12.6838Z" fill="url(#paint72_linear)"/>
<path fill-rule="evenodd" clip-rule="evenodd" d="M12.9365 19.4628L11.3734 18.1898C11.4936 18.0405 11.6139 17.8912 11.7382 17.746L13.2641 19.0647C13.1521 19.1974 13.0443 19.3301 12.9365 19.467V19.4628Z" fill="url(#paint73_linear)"/>
<path fill-rule="evenodd" clip-rule="evenodd" d="M13.2022 19.1393L11.6681 17.8289C11.7925 17.6797 11.9169 17.5345 12.0413 17.3894L13.5381 18.7454C13.4261 18.8739 13.3142 19.0066 13.2022 19.1393Z" fill="url(#paint74_linear)"/>
<path fill-rule="evenodd" clip-rule="evenodd" d="M13.4672 18.8242L11.9621 17.4765C12.0865 17.3313 12.2151 17.1862 12.3436 17.0452L13.8114 18.4344C13.6953 18.5629 13.5792 18.6915 13.4672 18.8242Z" fill="url(#paint75_linear)"/>
<path fill-rule="evenodd" clip-rule="evenodd" d="M13.7453 18.5131L12.2692 17.1322C12.3977 16.9871 12.5263 16.8461 12.6589 16.7051L14.0977 18.1275C13.9774 18.2519 13.8614 18.3804 13.7453 18.5131Z" fill="url(#paint76_linear)"/>
<path fill-rule="evenodd" clip-rule="evenodd" d="M14.0232 18.2063L12.5804 16.7923C12.713 16.6513 12.8457 16.5103 12.9784 16.3734L15.2464 18.7247L14.3674 17.8455C14.2513 17.9658 14.1352 18.0861 14.0232 18.2063Z" fill="url(#paint77_linear)"/>
<path fill-rule="evenodd" clip-rule="evenodd" d="M14.3087 17.9037L12.8948 16.4564C13.0275 16.3154 13.1643 16.1786 13.3012 16.0417L17.0576 20.1222H17.0535C16.7964 20.1222 16.5394 20.0268 16.3445 19.8278L14.3626 17.8415L14.3046 17.8995L14.3087 17.9037Z" fill="url(#paint78_linear)"/>
<path fill-rule="evenodd" clip-rule="evenodd" d="M16.9415 20.1137L13.2224 16.1203C13.3592 15.9835 13.5002 15.8466 13.6412 15.7139L17.4474 20.0432C17.323 20.093 17.1945 20.122 17.0618 20.122C17.0245 20.122 16.983 20.1179 16.9457 20.1137H16.9415Z" fill="url(#paint79_linear)"/>
<path fill-rule="evenodd" clip-rule="evenodd" d="M17.3651 20.0765L13.5589 15.7969C13.6999 15.6601 13.8408 15.5274 13.986 15.3988L17.7341 19.865C17.6263 19.9645 17.4978 20.035 17.3651 20.0765Z" fill="url(#paint80_linear)"/>
<path fill-rule="evenodd" clip-rule="evenodd" d="M17.6677 19.9148L13.8946 15.4736C14.0398 15.3409 14.1849 15.2082 14.33 15.0796L17.9413 19.5872C17.8957 19.6702 17.8377 19.7531 17.7672 19.8236C17.734 19.8568 17.7009 19.8858 17.6677 19.9107V19.9148Z" fill="url(#paint81_linear)"/>
<path fill-rule="evenodd" clip-rule="evenodd" d="M17.8996 19.6701L14.2468 15.1625C14.3919 15.0339 14.5411 14.9054 14.6904 14.7768L15.9218 16.3899L15.8265 16.4729L16.4899 17.1364L18.0613 19.1932C18.0488 19.3632 17.9949 19.5291 17.8996 19.6742V19.6701Z" fill="url(#paint82_linear)"/>
<path fill-rule="evenodd" clip-rule="evenodd" d="M18.0451 19.3094L15.9306 16.5725L17.7673 18.4095C18.012 18.6542 18.1032 18.9901 18.041 19.3053L18.0451 19.3094ZM15.8435 16.4564L14.6038 14.8516C14.753 14.723 14.9064 14.5986 15.0557 14.4742L16.2498 16.1163C16.113 16.2283 15.9762 16.3444 15.8435 16.4605V16.4564Z" fill="url(#paint83_linear)"/>
<path fill-rule="evenodd" clip-rule="evenodd" d="M16.1665 16.1825L14.9641 14.5487C15.1175 14.4243 15.2709 14.2999 15.4285 14.1755L16.5853 15.8467C16.4443 15.9586 16.3075 16.0706 16.1706 16.1825H16.1665Z" fill="url(#paint84_linear)"/>
<path fill-rule="evenodd" clip-rule="evenodd" d="M16.4985 15.9131L15.3334 14.2503C15.4909 14.1259 15.6443 14.0056 15.806 13.8853L16.9255 15.5814C16.7846 15.6892 16.6436 15.8012 16.5026 15.9131H16.4985Z" fill="url(#paint85_linear)"/>
<path fill-rule="evenodd" clip-rule="evenodd" d="M16.8338 15.6477L15.706 13.9557C15.8636 13.8355 16.0253 13.7152 16.187 13.5991L17.265 15.3242C17.1199 15.432 16.9747 15.5398 16.8338 15.6477Z" fill="url(#paint86_linear)"/>
<path fill-rule="evenodd" clip-rule="evenodd" d="M17.178 15.3905L16.0876 13.6737C16.2493 13.5576 16.4151 13.4415 16.5768 13.3254L17.6134 15.0753C17.4641 15.179 17.319 15.2868 17.1739 15.3905H17.178Z" fill="url(#paint87_linear)"/>
<path fill-rule="evenodd" clip-rule="evenodd" d="M17.5304 15.1335L16.4815 13.3919C16.6473 13.2758 16.8131 13.1638 16.9831 13.0518L17.9782 14.8267C17.829 14.9303 17.6797 15.0299 17.5304 15.1377V15.1335Z" fill="url(#paint88_linear)"/>
<path fill-rule="evenodd" clip-rule="evenodd" d="M17.887 14.8889L16.8794 13.1223C17.0494 13.0103 17.2153 12.8984 17.3894 12.7906L18.343 14.5903C18.1896 14.6898 18.0362 14.7893 17.887 14.893V14.8889Z" fill="url(#paint89_linear)"/>
<path fill-rule="evenodd" clip-rule="evenodd" d="M18.2524 14.6442L17.2864 12.8528C17.4564 12.7408 17.6305 12.633 17.8046 12.5293L18.7168 14.3498C18.5592 14.4451 18.4058 14.5447 18.2524 14.6442Z" fill="url(#paint90_linear)"/>
<path fill-rule="evenodd" clip-rule="evenodd" d="M18.6253 14.4077L17.7007 12.5914C17.8749 12.4836 18.049 12.3799 18.2273 12.2762L19.098 14.1174C18.9404 14.2128 18.7829 14.3082 18.6253 14.4036V14.4077Z" fill="url(#paint91_linear)"/>
<path fill-rule="evenodd" clip-rule="evenodd" d="M19.0023 14.1755L18.1233 12.3384C18.3016 12.2348 18.4798 12.1311 18.6623 12.0316L19.4874 13.8935C19.3257 13.9847 19.164 14.0801 19.0064 14.1755H19.0023Z" fill="url(#paint92_linear)"/>
<path fill-rule="evenodd" clip-rule="evenodd" d="M19.3841 13.9517L18.5466 12.0939C18.729 11.9943 18.9115 11.8948 19.0939 11.7953L19.8734 13.678C19.7075 13.765 19.5458 13.8563 19.3841 13.9517Z" fill="url(#paint93_linear)"/>
<path fill-rule="evenodd" clip-rule="evenodd" d="M19.7782 13.7319L18.9863 11.8534C19.1687 11.7539 19.3553 11.6585 19.5419 11.5631L20.2799 13.4624C20.1141 13.5494 19.9482 13.6365 19.7824 13.7278L19.7782 13.7319Z" fill="url(#paint94_linear)"/>
<path fill-rule="evenodd" clip-rule="evenodd" d="M20.1757 13.5205L19.4294 11.6253C19.6159 11.53 19.8067 11.4387 19.9932 11.3475L20.6815 13.2675C20.5115 13.3504 20.3415 13.4375 20.1757 13.5246V13.5205Z" fill="url(#paint95_linear)"/>
<path fill-rule="evenodd" clip-rule="evenodd" d="M20.5821 13.313L19.8814 11.3971C20.0721 11.3059 20.2628 11.2188 20.4577 11.1317L21.1004 13.0641C20.9262 13.1429 20.7562 13.2259 20.5821 13.313Z" fill="url(#paint96_linear)"/>
<path fill-rule="evenodd" clip-rule="evenodd" d="M20.9926 13.1181L20.3375 11.1857C20.5323 11.0986 20.7231 11.0115 20.9221 10.9286L21.5191 12.8776C21.3409 12.9564 21.1667 13.0352 20.9926 13.114V13.1181Z" fill="url(#paint97_linear)"/>
<path fill-rule="evenodd" clip-rule="evenodd" d="M21.4113 12.9274L20.8018 10.9825C20.9966 10.8996 21.1957 10.8166 21.3947 10.7337L21.942 12.6993C21.7637 12.7739 21.5854 12.8486 21.4071 12.9274H21.4113Z" fill="url(#paint98_linear)"/>
<path fill-rule="evenodd" clip-rule="evenodd" d="M21.8389 12.7407L21.2791 10.7792C21.4782 10.6963 21.6772 10.6217 21.8803 10.5429L22.382 12.5209C22.1996 12.5914 22.0213 12.666 21.8389 12.7407Z" fill="url(#paint99_linear)"/>
<path fill-rule="evenodd" clip-rule="evenodd" d="M22.2699 12.5666L21.7557 10.5928C21.9589 10.514 22.1621 10.4393 22.3652 10.3688L22.8172 12.3593C22.6306 12.4257 22.4481 12.4962 22.2657 12.5666H22.2699Z" fill="url(#paint100_linear)"/>
<path fill-rule="evenodd" clip-rule="evenodd" d="M22.709 12.3965L22.2446 10.4102C22.4519 10.3355 22.6551 10.265 22.8665 10.1987L23.2687 12.1975C23.0821 12.2597 22.8956 12.326 22.709 12.3965Z" fill="url(#paint101_linear)"/>
<path fill-rule="evenodd" clip-rule="evenodd" d="M23.1571 12.2349L22.7425 10.2403C22.9498 10.1698 23.1612 10.1034 23.3727 10.0412L23.7251 12.0483C23.5344 12.1105 23.3437 12.1727 23.1571 12.2349Z" fill="url(#paint102_linear)"/>
<path fill-rule="evenodd" clip-rule="evenodd" d="M23.6093 12.0856L23.2444 10.0786C23.4559 10.0122 23.6673 9.95002 23.8829 9.89197L24.1856 11.9073C23.9907 11.9654 23.8 12.0234 23.6093 12.0856Z" fill="url(#paint103_linear)"/>
<path fill-rule="evenodd" clip-rule="evenodd" d="M24.0689 11.9404L23.7538 9.92507C23.9694 9.86287 24.185 9.80481 24.4006 9.7509L24.6535 11.7746C24.4586 11.8285 24.2638 11.8824 24.0689 11.9404Z" fill="url(#paint104_linear)"/>
<path fill-rule="evenodd" clip-rule="evenodd" d="M24.5334 11.8077L24.268 9.78815C24.4836 9.73009 24.7034 9.67619 24.9231 9.62642L25.1263 11.6542C24.9273 11.704 24.7324 11.7538 24.5334 11.8077Z" fill="url(#paint105_linear)"/>
<path fill-rule="evenodd" clip-rule="evenodd" d="M25.0061 11.6833L24.7904 9.65552C25.0102 9.60161 25.2299 9.55599 25.4538 9.50623L25.6031 11.5382C25.4041 11.5838 25.2009 11.6294 25.0019 11.6792L25.0061 11.6833Z" fill="url(#paint106_linear)"/>
<path fill-rule="evenodd" clip-rule="evenodd" d="M25.4869 11.5673L25.3211 9.53533C25.545 9.48971 25.7689 9.44409 25.9928 9.40263L26.0923 11.4346C25.8891 11.476 25.6859 11.5175 25.4869 11.5631V11.5673Z" fill="url(#paint107_linear)"/>
<path fill-rule="evenodd" clip-rule="evenodd" d="M25.9726 11.4635L25.8607 9.43157C26.0846 9.3901 26.3126 9.34864 26.5406 9.31131L26.5904 11.3474C26.3831 11.3847 26.1799 11.4221 25.9768 11.4635H25.9726Z" fill="url(#paint108_linear)"/>
<path fill-rule="evenodd" clip-rule="evenodd" d="M26.4617 11.3682L26.3995 9.33206C26.6275 9.29474 26.8556 9.25742 27.0878 9.22839L27.0836 11.2645C26.8763 11.2977 26.669 11.3308 26.4617 11.3682Z" fill="url(#paint109_linear)"/>
<path fill-rule="evenodd" clip-rule="evenodd" d="M26.9589 11.2811L26.9506 9.24504C27.1828 9.21186 27.4108 9.18284 27.643 9.15796L27.5891 11.1899C27.3777 11.2189 27.1704 11.248 26.9589 11.2811Z" fill="url(#paint110_linear)"/>
<path fill-rule="evenodd" clip-rule="evenodd" d="M27.4607 11.2106L27.5022 9.17446C27.7344 9.14543 27.9707 9.12055 28.2029 9.09981L28.0951 11.1318C27.8837 11.1525 27.6681 11.1815 27.4607 11.2106Z" fill="url(#paint111_linear)"/>
<path fill-rule="evenodd" clip-rule="evenodd" d="M27.9709 11.1442L28.0663 9.11221C28.3026 9.09148 28.5389 9.07074 28.7753 9.05416L28.6177 11.082C28.4021 11.0985 28.1865 11.1193 27.975 11.1442H27.9709Z" fill="url(#paint112_linear)"/>
<path fill-rule="evenodd" clip-rule="evenodd" d="M28.4852 11.0946L28.6303 9.06675C28.8666 9.05016 29.1071 9.03772 29.3434 9.02528L29.132 11.0448C28.9164 11.0572 28.6966 11.0738 28.481 11.0946H28.4852Z" fill="url(#paint113_linear)"/>
<path fill-rule="evenodd" clip-rule="evenodd" d="M29.0035 11.0529L29.2025 9.02928C29.443 9.01684 29.6834 9.00855 29.9239 9.0044L29.4222 12.8568V11.0281C29.2854 11.0364 29.1444 11.0446 29.0076 11.0529H29.0035Z" fill="url(#paint114_linear)"/>
<path fill-rule="evenodd" clip-rule="evenodd" d="M29.4178 11.8989L29.7785 9.0086C29.99 9.00445 30.2056 9.00031 30.4212 9.00031C30.4254 9.00031 30.4336 9.00031 30.4419 9.00031C30.4502 9.00031 30.4544 9.00031 30.4627 9.00031C30.471 9.00031 30.4751 9.00031 30.4834 9.00031C30.4917 9.00031 30.4958 9.00031 30.5041 9.00031H30.5083L29.6542 14.4285C29.509 14.2543 29.422 14.0304 29.422 13.7858V11.9031L29.4178 11.8989Z" fill="url(#paint115_linear)"/>
<path fill-rule="evenodd" clip-rule="evenodd" d="M29.5587 14.3L30.3548 9.00031H30.4169C30.4211 9.00031 30.4294 9.00031 30.4377 9.00031C30.446 9.00031 30.4501 9.00031 30.4584 9.00031C30.4667 9.00031 30.4708 9.00031 30.4791 9.00031C30.4874 9.00031 30.4916 9.00031 30.4999 9.00031C30.6947 9.00031 30.8938 9.00445 31.0886 9.0086L30.0396 14.7146C29.8365 14.6317 29.6706 14.4866 29.5587 14.3Z" fill="url(#paint116_linear)"/>
<path fill-rule="evenodd" clip-rule="evenodd" d="M29.9403 14.6648L30.9436 9.0044C31.1883 9.00855 31.437 9.01684 31.6817 9.02928L30.4668 14.7851H30.4212C30.2471 14.7851 30.0854 14.7395 29.9403 14.6648Z" fill="url(#paint117_linear)"/>
<path fill-rule="evenodd" clip-rule="evenodd" d="M30.3546 14.7852L31.5322 9.02528C31.7809 9.03357 32.0255 9.05016 32.2743 9.06675L31.8017 11.0489C31.6773 11.0406 31.5487 11.0323 31.4243 11.0282V12.6372L30.9475 14.6401C30.7941 14.7355 30.6158 14.7894 30.421 14.7894L30.3588 14.7852H30.3546Z" fill="url(#paint118_linear)"/>
<path fill-rule="evenodd" clip-rule="evenodd" d="M30.8148 14.7064L31.4202 12.0939V13.7858C31.4202 14.2005 31.1714 14.553 30.8148 14.7064ZM31.6648 11.0406L32.125 9.05845C32.3738 9.07503 32.6226 9.09577 32.8713 9.1165L32.3448 11.0904C32.1209 11.0697 31.8928 11.0531 31.6648 11.0406Z" fill="url(#paint119_linear)"/>
<path fill-rule="evenodd" clip-rule="evenodd" d="M32.2085 11.0778L32.7185 9.10391C32.9673 9.12465 33.2202 9.15367 33.4689 9.1827L32.8926 11.1442C32.6646 11.1193 32.4365 11.0985 32.2085 11.0778Z" fill="url(#paint120_linear)"/>
<path fill-rule="evenodd" clip-rule="evenodd" d="M32.7514 11.1277L33.3153 9.16205C33.5682 9.19108 33.817 9.22426 34.0658 9.26158L33.4355 11.2106C33.2075 11.1816 32.9795 11.1525 32.7514 11.1277Z" fill="url(#paint121_linear)"/>
<path fill-rule="evenodd" clip-rule="evenodd" d="M33.3025 11.1899L33.9203 9.24088C34.1732 9.2782 34.4262 9.31552 34.6749 9.35699L33.9949 11.2894C33.7669 11.2521 33.5389 11.2189 33.3067 11.1899H33.3025Z" fill="url(#paint122_linear)"/>
<path fill-rule="evenodd" clip-rule="evenodd" d="M33.8504 11.2686L34.5179 9.332C34.7708 9.37347 35.0237 9.41908 35.2725 9.46884L34.5386 11.3847C34.3106 11.3432 34.0784 11.3017 33.8462 11.2686H33.8504Z" fill="url(#paint123_linear)"/>
<path fill-rule="evenodd" clip-rule="evenodd" d="M34.4055 11.3599L35.127 9.43989C35.3799 9.48966 35.6328 9.53942 35.8816 9.59747L35.0979 11.4967C34.8699 11.447 34.6377 11.4013 34.4055 11.3599Z" fill="url(#paint124_linear)"/>
<path fill-rule="evenodd" clip-rule="evenodd" d="M34.9575 11.4676L35.7287 9.56418C35.9816 9.61809 36.2345 9.68029 36.4833 9.7425L35.6457 11.6252C35.4177 11.5713 35.1855 11.5173 34.9533 11.4717L34.9575 11.4676Z" fill="url(#paint125_linear)"/>
<path fill-rule="evenodd" clip-rule="evenodd" d="M35.5126 11.5921L36.3377 9.70525C36.5906 9.76745 36.8436 9.8338 37.0923 9.9043L36.205 11.7662C35.977 11.704 35.7448 11.646 35.5126 11.5921Z" fill="url(#paint126_linear)"/>
<path fill-rule="evenodd" clip-rule="evenodd" d="M36.0645 11.729L36.9394 9.8629C37.1923 9.93339 37.4452 10.0039 37.694 10.0827L36.7569 11.9239C36.5289 11.8575 36.2967 11.7912 36.0645 11.729Z" fill="url(#paint127_linear)"/>
<path fill-rule="evenodd" clip-rule="evenodd" d="M36.6197 11.8782L37.5443 10.0328C37.7973 10.1075 38.0502 10.1863 38.2989 10.2734L37.3121 12.0938C37.0841 12.0192 36.8519 11.9487 36.6197 11.8823V11.8782Z" fill="url(#paint128_linear)"/>
<path fill-rule="evenodd" clip-rule="evenodd" d="M37.1716 12.0483L38.146 10.2237C38.3989 10.3066 38.6477 10.3937 38.8964 10.4849L37.8599 12.2805C37.6318 12.2017 37.4038 12.1229 37.1716 12.0483Z" fill="url(#paint129_linear)"/>
<path fill-rule="evenodd" clip-rule="evenodd" d="M37.7227 12.2306L38.7468 10.4309C38.9998 10.5221 39.2485 10.6133 39.4932 10.7129L38.4069 12.4836C38.1788 12.3965 37.9508 12.3135 37.7227 12.2347V12.2306Z" fill="url(#paint130_linear)"/>
<path fill-rule="evenodd" clip-rule="evenodd" d="M38.2698 12.4297L39.3437 10.6549C39.5924 10.7502 39.8412 10.8539 40.0858 10.9576L38.9498 12.6993C38.7259 12.6039 38.4978 12.5168 38.2656 12.4297H38.2698Z" fill="url(#paint131_linear)"/>
<path fill-rule="evenodd" clip-rule="evenodd" d="M38.8175 12.6413L39.9412 10.8913C40.1899 10.995 40.4346 11.1028 40.6792 11.2148L39.4975 12.9274C39.2736 12.8279 39.0456 12.7325 38.8175 12.6372V12.6413Z" fill="url(#paint132_linear)"/>
<path fill-rule="evenodd" clip-rule="evenodd" d="M39.3605 12.8735L40.5338 11.1526C40.7785 11.2646 41.0231 11.3807 41.2677 11.4968L40.0363 13.1804C39.8124 13.0726 39.5885 12.9689 39.3646 12.8735H39.3605Z" fill="url(#paint133_linear)"/>
<path fill-rule="evenodd" clip-rule="evenodd" d="M39.8993 13.1181L41.1183 11.4261C41.3629 11.5423 41.6034 11.6667 41.8439 11.7952L40.5668 13.4498C40.3471 13.3378 40.1232 13.2259 39.8993 13.1222V13.1181Z" fill="url(#paint134_linear)"/>
<path fill-rule="evenodd" clip-rule="evenodd" d="M40.4341 13.3794L41.6986 11.7165C41.9391 11.8409 42.1796 11.9736 42.4159 12.1021L41.0933 13.7235C40.8736 13.6033 40.6538 13.4872 40.4299 13.3752L40.4341 13.3794Z" fill="url(#paint135_linear)"/>
<path fill-rule="evenodd" clip-rule="evenodd" d="M40.9647 13.6531L42.2749 12.0234C42.5154 12.1561 42.7517 12.2929 42.9839 12.4298L41.6156 14.018C41.4 13.8936 41.1803 13.7692 40.9605 13.6531H40.9647Z" fill="url(#paint136_linear)"/>
<path fill-rule="evenodd" clip-rule="evenodd" d="M41.4919 13.9434L42.8477 12.3469C43.0841 12.4837 43.3204 12.6289 43.5485 12.774L42.1387 14.3291C41.9273 14.1964 41.7117 14.0678 41.4919 13.9434Z" fill="url(#paint137_linear)"/>
<path fill-rule="evenodd" clip-rule="evenodd" d="M42.0103 14.2501L43.4117 12.6868C43.6439 12.8319 43.8761 12.9812 44.1041 13.1346L42.6488 14.6565C42.4373 14.5197 42.2259 14.3828 42.0103 14.2543V14.2501Z" fill="url(#paint138_linear)"/>
<path fill-rule="evenodd" clip-rule="evenodd" d="M42.5196 14.5736L43.9625 13.0434C44.1947 13.1969 44.4228 13.3503 44.6466 13.512L43.1499 14.9966C42.9426 14.8515 42.7311 14.7105 42.5196 14.5736Z" fill="url(#paint139_linear)"/>
<path fill-rule="evenodd" clip-rule="evenodd" d="M43.0257 14.9095L44.5101 13.4167C44.7381 13.5743 44.962 13.736 45.1818 13.9019L43.6435 15.3491C43.4404 15.1998 43.233 15.0505 43.0216 14.9095H43.0257Z" fill="url(#paint140_linear)"/>
<path fill-rule="evenodd" clip-rule="evenodd" d="M43.5235 15.2621L45.0535 13.8065C45.2774 13.9724 45.4971 14.1424 45.7127 14.3124L44.133 15.7224C43.934 15.5648 43.7308 15.4113 43.5235 15.2621Z" fill="url(#paint141_linear)"/>
<path fill-rule="evenodd" clip-rule="evenodd" d="M44.0124 15.6269L45.5797 14.2086C45.7994 14.3787 46.015 14.557 46.2265 14.7353L44.6095 16.1038C44.4146 15.942 44.2114 15.7844 44.0124 15.6269Z" fill="url(#paint142_linear)"/>
<path fill-rule="evenodd" clip-rule="evenodd" d="M44.4931 16.0044L46.1018 14.6235C46.3174 14.8018 46.5289 14.9842 46.7362 15.1667L45.0819 16.4937C44.887 16.3278 44.6921 16.1619 44.4931 16.0002V16.0044Z" fill="url(#paint143_linear)"/>
<path fill-rule="evenodd" clip-rule="evenodd" d="M44.9621 16.3982L46.6081 15.0588C46.8196 15.2412 47.0269 15.432 47.23 15.6227L43.345 18.5753L45.2606 16.6594C45.1611 16.5723 45.0616 16.4853 44.9621 16.3982Z" fill="url(#paint144_linear)"/>
<path fill-rule="evenodd" clip-rule="evenodd" d="M44.0833 17.8414L47.11 15.5067C47.3173 15.6975 47.5164 15.8882 47.7154 16.0873L42.997 19.4877C42.9555 19.1891 43.0509 18.874 43.2789 18.6459L44.0833 17.8414Z" fill="url(#paint145_linear)"/>
<path fill-rule="evenodd" clip-rule="evenodd" d="M42.984 19.3342L47.5946 15.9711C47.7937 16.166 47.9927 16.365 48.1875 16.5682L43.1955 19.9687C43.0504 19.782 42.9799 19.5581 42.984 19.3383V19.3342Z" fill="url(#paint146_linear)"/>
<path fill-rule="evenodd" clip-rule="evenodd" d="M43.1256 19.8609L48.072 16.4439C48.2669 16.6471 48.4617 16.8502 48.6483 17.0576L46.8489 18.2187L46.6996 18.057L45.9782 18.7785L43.6355 20.288C43.507 20.2382 43.3868 20.1636 43.2831 20.0599C43.2209 19.9977 43.1712 19.9313 43.1297 19.8609H43.1256Z" fill="url(#paint147_linear)"/>
<path fill-rule="evenodd" clip-rule="evenodd" d="M43.4982 20.2216L46.4793 18.2768L44.7006 20.0599C44.5057 20.2548 44.2486 20.3543 43.9916 20.3543C43.8216 20.3543 43.6516 20.3129 43.5023 20.2258L43.4982 20.2216ZM46.7405 18.1026L48.5317 16.9332C48.7224 17.1405 48.909 17.3479 49.0914 17.5635L47.2588 18.679C47.0888 18.4841 46.9147 18.2934 46.7405 18.1068V18.1026Z" fill="url(#paint148_linear)"/>
<path fill-rule="evenodd" clip-rule="evenodd" d="M44.4022 20.2631L44.6178 20.1304C44.5515 20.1843 44.4768 20.23 44.4022 20.2631ZM47.1594 18.5629L48.9838 17.4391C49.1703 17.6506 49.3486 17.8663 49.5269 18.086L47.6653 19.1559C47.4994 18.9569 47.3336 18.762 47.1636 18.5671L47.1594 18.5629Z" fill="url(#paint149_linear)"/>
<path fill-rule="evenodd" clip-rule="evenodd" d="M47.5614 19.0315L49.4189 17.9492C49.5972 18.1648 49.7714 18.3887 49.9414 18.6085L48.0465 19.6286C47.889 19.4254 47.7231 19.2222 47.5573 19.0273L47.5614 19.0315Z" fill="url(#paint150_linear)"/>
<path fill-rule="evenodd" clip-rule="evenodd" d="M47.9512 19.5126L49.8377 18.4801C50.0119 18.704 50.1777 18.9279 50.3436 19.156L48.4197 20.1305C48.2663 19.9232 48.1088 19.7158 47.9471 19.5126H47.9512Z" fill="url(#paint151_linear)"/>
<path fill-rule="evenodd" clip-rule="evenodd" d="M48.3327 20.0018L50.2483 19.0149C50.4141 19.2429 50.58 19.471 50.7376 19.7032L48.7888 20.6321C48.6396 20.4206 48.4903 20.2091 48.3327 20.0018Z" fill="url(#paint152_linear)"/>
<path fill-rule="evenodd" clip-rule="evenodd" d="M48.6979 20.5077L50.6425 19.5705C50.8042 19.8028 50.9618 20.035 51.1152 20.2714L49.1374 21.1505C48.9965 20.9349 48.8513 20.7192 48.7021 20.5077H48.6979Z" fill="url(#paint153_linear)"/>
<path fill-rule="evenodd" clip-rule="evenodd" d="M49.046 21.0178L51.0154 20.1262C51.1688 20.3626 51.3222 20.599 51.4674 20.8395L49.4647 21.6688C49.3279 21.4491 49.1869 21.2293 49.046 21.0136V21.0178Z" fill="url(#paint154_linear)"/>
<path fill-rule="evenodd" clip-rule="evenodd" d="M49.3858 21.5403L51.3801 20.6985C51.5294 20.939 51.6704 21.1795 51.8113 21.4242L49.788 22.2038C49.6595 21.9799 49.5226 21.7559 49.3858 21.5403Z" fill="url(#paint155_linear)"/>
<path fill-rule="evenodd" clip-rule="evenodd" d="M49.7052 22.0712L51.7244 21.2791C51.8653 21.5238 52.0022 21.7685 52.1348 22.0173L50.0866 22.7471C49.9622 22.519 49.8337 22.2951 49.7052 22.0712Z" fill="url(#paint156_linear)"/>
<path fill-rule="evenodd" clip-rule="evenodd" d="M50.0163 22.6103L52.0604 21.868C52.1931 22.1168 52.3216 22.3656 52.4501 22.6186L50.3812 23.2987C50.2651 23.0664 50.1448 22.8384 50.0163 22.6103Z" fill="url(#paint157_linear)"/>
<path fill-rule="evenodd" clip-rule="evenodd" d="M50.3062 23.1619L52.371 22.4693C52.4996 22.7181 52.6198 22.9752 52.74 23.2282L50.6545 23.8585C50.5425 23.6263 50.4306 23.3941 50.3104 23.1619H50.3062Z" fill="url(#paint158_linear)"/>
<path fill-rule="evenodd" clip-rule="evenodd" d="M50.5846 23.7175L52.666 23.0748C52.7862 23.3277 52.9023 23.5848 53.0143 23.8419L50.908 24.4183C50.8043 24.182 50.6965 23.9456 50.5846 23.7134V23.7175Z" fill="url(#paint159_linear)"/>
<path fill-rule="evenodd" clip-rule="evenodd" d="M50.8458 24.2772L52.9479 23.6884C53.0599 23.9455 53.1718 24.2026 53.2755 24.4639L51.1526 24.9905C51.0573 24.75 50.9536 24.5136 50.8499 24.2772H50.8458Z" fill="url(#paint160_linear)"/>
<path fill-rule="evenodd" clip-rule="evenodd" d="M51.0899 24.8495L53.2086 24.3104C53.3122 24.5717 53.4159 24.8329 53.5154 25.0942L51.3759 25.5711C51.2847 25.3305 51.1894 25.09 51.094 24.8495H51.0899Z" fill="url(#paint161_linear)"/>
<path fill-rule="evenodd" clip-rule="evenodd" d="M51.3183 25.4259L53.4536 24.9365C53.5531 25.1978 53.6443 25.4632 53.7355 25.7286L51.5837 26.1516C51.5007 25.9069 51.4137 25.6664 51.3183 25.4259Z" fill="url(#paint162_linear)"/>
<path fill-rule="evenodd" clip-rule="evenodd" d="M51.5296 26.0065L53.6815 25.571C53.7727 25.8364 53.8597 26.1018 53.9385 26.3714L51.7742 26.7404C51.6954 26.4958 51.6166 26.2511 51.5337 26.0065H51.5296Z" fill="url(#paint163_linear)"/>
<path fill-rule="evenodd" clip-rule="evenodd" d="M51.7286 26.5912L53.8929 26.2096C53.9758 26.475 54.0546 26.7446 54.1292 27.0141L51.9525 27.3334C51.882 27.0846 51.8073 26.84 51.7327 26.5953L51.7286 26.5912Z" fill="url(#paint164_linear)"/>
<path fill-rule="evenodd" clip-rule="evenodd" d="M51.9071 27.1843L54.0838 26.8525C54.1585 27.1221 54.2289 27.3916 54.2953 27.6653L52.1061 27.9307C52.0439 27.6819 51.9775 27.4331 51.9071 27.1843Z" fill="url(#paint165_linear)"/>
<path fill-rule="evenodd" clip-rule="evenodd" d="M52.0684 27.7813L54.2535 27.5034C54.3198 27.773 54.3861 28.0467 54.4442 28.3204L52.2467 28.5319C52.1928 28.2789 52.1306 28.0301 52.0684 27.7813Z" fill="url(#paint166_linear)"/>
<path fill-rule="evenodd" clip-rule="evenodd" d="M52.2141 28.3785L54.4075 28.1545C54.4697 28.4241 54.5236 28.6978 54.5775 28.9756L52.3717 29.1373C52.3219 28.8844 52.2722 28.6356 52.2141 28.3826V28.3785Z" fill="url(#paint167_linear)"/>
<path fill-rule="evenodd" clip-rule="evenodd" d="M52.3468 28.9798L54.5484 28.8056C54.6023 29.0793 54.6521 29.353 54.6935 29.6267L52.4836 29.7345C52.4421 29.4816 52.3965 29.2286 52.3468 28.9798Z" fill="url(#paint168_linear)"/>
<path fill-rule="evenodd" clip-rule="evenodd" d="M52.4582 29.5852L54.6681 29.4649C54.7137 29.7386 54.7552 30.0123 54.7925 30.2901L52.5743 30.344C52.5411 30.0911 52.4996 29.8381 52.4582 29.5852Z" fill="url(#paint169_linear)"/>
<path fill-rule="evenodd" clip-rule="evenodd" d="M52.554 30.1907L54.7681 30.1244C54.8054 30.3981 54.8386 30.6759 54.8676 30.9496H52.6452C52.6162 30.6967 52.5872 30.4395 52.5499 30.1907H52.554Z" fill="url(#paint170_linear)"/>
<path fill-rule="evenodd" clip-rule="evenodd" d="M52.6326 30.8002L54.8508 30.7878C54.8798 31.0615 54.9089 31.3393 54.9296 31.6171L52.7072 31.5632C52.6865 31.3061 52.6616 31.0532 52.6326 30.8002Z" fill="url(#paint171_linear)"/>
<path fill-rule="evenodd" clip-rule="evenodd" d="M52.6907 31.4098L54.9131 31.4471C54.938 31.7208 54.9545 31.9986 54.9711 32.2765L52.7488 32.1728C52.7363 31.9157 52.7156 31.6627 52.6949 31.4098H52.6907Z" fill="url(#paint172_linear)"/>
<path fill-rule="evenodd" clip-rule="evenodd" d="M52.7363 32.0193L54.9587 32.1106C54.9752 32.3842 54.9835 32.6621 54.9918 32.9399L49.4234 32.546C49.5852 32.4299 49.7842 32.3635 49.9998 32.3635H52.757C52.7529 32.2474 52.7446 32.1354 52.7404 32.0193H52.7363Z" fill="url(#paint173_linear)"/>
<path fill-rule="evenodd" clip-rule="evenodd" d="M49.6471 32.43L54.9915 32.7742C54.9998 33.0147 55.004 33.2594 55.004 33.5041V33.6036L49.0542 33.0438C49.1495 32.7618 49.3693 32.5337 49.6471 32.43Z" fill="url(#paint174_linear)"/>
<path fill-rule="evenodd" clip-rule="evenodd" d="M49.1038 32.9151L54.9997 33.4376V33.504C54.9997 33.7569 54.9956 34.0099 54.9873 34.2629L49.0167 33.5579C49.0043 33.4957 49.0001 33.4293 49.0001 33.363C49.0001 33.2013 49.0374 33.0478 49.1079 32.911L49.1038 32.9151Z" fill="url(#paint175_linear)"/>
<path fill-rule="evenodd" clip-rule="evenodd" d="M49.0001 33.4251L54.9956 34.0969C54.9873 34.3747 54.979 34.6484 54.9624 34.9221L52.9681 34.6401L52.9805 34.3664H51.0359L49.3526 34.1259C49.1535 33.9559 49.0209 33.7071 49.0043 33.4251H49.0001Z" fill="url(#paint176_linear)"/>
<path fill-rule="evenodd" clip-rule="evenodd" d="M49.2032 33.9767L52.0807 34.3665H49.9951C49.6717 34.3665 49.3856 34.2131 49.2032 33.9767ZM52.9721 34.4909L54.9664 34.7604C54.954 35.0341 54.9333 35.312 54.9125 35.5815L52.9265 35.2539C52.9472 35.001 52.9597 34.7439 52.9721 34.4868V34.4909Z" fill="url(#paint177_linear)"/>
<path fill-rule="evenodd" clip-rule="evenodd" d="M52.9397 35.1005L54.9257 35.4198C54.905 35.6935 54.8801 35.9672 54.8469 36.2409L52.8692 35.8677C52.8941 35.6147 52.919 35.3618 52.9355 35.1047L52.9397 35.1005Z" fill="url(#paint178_linear)"/>
<path fill-rule="evenodd" clip-rule="evenodd" d="M52.8851 35.7101L54.8629 36.075C54.8339 36.3487 54.8007 36.6224 54.7634 36.8919L52.7939 36.4731C52.8271 36.2201 52.8561 35.9672 52.881 35.7142L52.8851 35.7101Z" fill="url(#paint179_linear)"/>
<path fill-rule="evenodd" clip-rule="evenodd" d="M52.819 36.3196L54.7884 36.7301C54.7511 37.0038 54.7138 37.2734 54.6682 37.5429L52.7112 37.0785C52.7527 36.8255 52.7858 36.5767 52.819 36.3238V36.3196Z" fill="url(#paint180_linear)"/>
<path fill-rule="evenodd" clip-rule="evenodd" d="M52.7365 36.925L54.6976 37.3812C54.6562 37.6507 54.6064 37.9203 54.5567 38.1898L52.6121 37.6798C52.6577 37.431 52.7033 37.178 52.7406 36.925H52.7365Z" fill="url(#paint181_linear)"/>
<path fill-rule="evenodd" clip-rule="evenodd" d="M52.6368 37.5264L54.5856 38.024C54.5358 38.2936 54.4819 38.5631 54.4239 38.8285L52.4917 38.2729C52.5456 38.024 52.5954 37.7752 52.641 37.5223L52.6368 37.5264Z" fill="url(#paint182_linear)"/>
<path fill-rule="evenodd" clip-rule="evenodd" d="M52.5209 38.1277L54.4571 38.671C54.3991 38.9405 54.3369 39.2059 54.2706 39.4713L52.3509 38.87C52.4131 38.6212 52.467 38.3765 52.5209 38.1277Z" fill="url(#paint183_linear)"/>
<path fill-rule="evenodd" clip-rule="evenodd" d="M52.3876 38.7207L54.3115 39.3095C54.2451 39.5749 54.1788 39.8403 54.1042 40.1016L52.2011 39.4588C52.2674 39.2141 52.3296 38.9695 52.3876 38.7207Z" fill="url(#paint184_linear)"/>
<path fill-rule="evenodd" clip-rule="evenodd" d="M52.2388 39.3136L54.1461 39.9439C54.0756 40.2093 53.9968 40.4706 53.918 40.7318L52.0315 40.0435C52.1062 39.8029 52.1725 39.5583 52.2388 39.3136Z" fill="url(#paint185_linear)"/>
<path fill-rule="evenodd" clip-rule="evenodd" d="M52.077 39.8984L53.9676 40.5743C53.8889 40.8355 53.8059 41.0968 53.7189 41.3539L51.8489 40.6241C51.9277 40.3835 52.0065 40.143 52.077 39.8984Z" fill="url(#paint186_linear)"/>
<path fill-rule="evenodd" clip-rule="evenodd" d="M51.8946 40.4831L53.7687 41.2005C53.6816 41.4576 53.5946 41.7147 53.4992 41.9718L51.6458 41.2005C51.7329 40.9642 51.8158 40.7236 51.8946 40.4831Z" fill="url(#paint187_linear)"/>
<path fill-rule="evenodd" clip-rule="evenodd" d="M51.7 41.0554L53.5575 41.8143C53.4663 42.0714 53.3668 42.3243 53.2672 42.5773L51.4305 41.7645C51.5217 41.5281 51.6129 41.2918 51.6958 41.0554H51.7Z" fill="url(#paint188_linear)"/>
<path fill-rule="evenodd" clip-rule="evenodd" d="M51.4881 41.6276L53.329 42.4321C53.2295 42.6851 53.1259 42.938 53.0181 43.1869L51.202 42.3326C51.3015 42.1004 51.3969 41.864 51.4881 41.6276Z" fill="url(#paint189_linear)"/>
<path fill-rule="evenodd" clip-rule="evenodd" d="M51.2599 42.1915L53.0801 43.0375C52.9723 43.2863 52.8645 43.5351 52.7484 43.7839L50.9531 42.8882C51.0568 42.6601 51.1604 42.4279 51.2599 42.1915Z" fill="url(#paint190_linear)"/>
<path fill-rule="evenodd" clip-rule="evenodd" d="M51.0194 42.7472L52.8188 43.6346C52.7069 43.8834 52.5908 44.1281 52.4706 44.3728L50.696 43.4356C50.8079 43.2075 50.9157 42.9794 51.0194 42.7472Z" fill="url(#paint191_linear)"/>
<path fill-rule="evenodd" clip-rule="evenodd" d="M50.7625 43.2988L52.5412 44.2235C52.421 44.4682 52.3008 44.7087 52.1722 44.9492L50.4184 43.9747C50.5345 43.7508 50.6506 43.5269 50.7625 43.2988Z" fill="url(#paint192_linear)"/>
<path fill-rule="evenodd" clip-rule="evenodd" d="M50.4892 43.842L52.2472 44.8082C52.1228 45.0487 51.9901 45.2892 51.8575 45.5256L50.1285 44.5096C50.2529 44.2898 50.3731 44.0659 50.4892 43.842Z" fill="url(#paint193_linear)"/>
<path fill-rule="evenodd" clip-rule="evenodd" d="M50.2028 44.377L51.9401 45.3847C51.8074 45.621 51.6706 45.8574 51.5338 46.0896L49.8255 45.0363C49.954 44.8207 50.0826 44.6009 50.2028 44.377Z" fill="url(#paint194_linear)"/>
<path fill-rule="evenodd" clip-rule="evenodd" d="M49.9001 44.9036L51.6125 45.9486C51.4757 46.1808 51.3306 46.413 51.1854 46.6453L49.5021 45.5505C49.6389 45.3349 49.7716 45.1192 49.9001 44.9036Z" fill="url(#paint195_linear)"/>
<path fill-rule="evenodd" clip-rule="evenodd" d="M49.585 45.422L51.2726 46.5043C51.1274 46.7324 50.9782 46.9605 50.8289 47.1886L49.1704 46.0565C49.3114 45.845 49.4482 45.6335 49.585 45.422Z" fill="url(#paint196_linear)"/>
<path fill-rule="evenodd" clip-rule="evenodd" d="M49.2577 45.9321L50.9203 47.0517C50.7711 47.2798 50.6135 47.5037 50.456 47.7235L48.8265 46.5541C48.9758 46.3468 49.1167 46.1394 49.2577 45.9279V45.9321Z" fill="url(#paint197_linear)"/>
<path fill-rule="evenodd" clip-rule="evenodd" d="M48.9132 46.4339L50.5509 47.5908C50.3934 47.8148 50.2358 48.0304 50.07 48.2502L48.4654 47.0476C48.6188 46.8444 48.7681 46.6412 48.9132 46.4339Z" fill="url(#paint198_linear)"/>
<path fill-rule="evenodd" clip-rule="evenodd" d="M48.5572 46.9273L50.1659 48.1216C50.0042 48.3414 49.8383 48.557 49.6683 48.7685L48.0928 47.5286C48.2503 47.3295 48.4079 47.1305 48.5572 46.9273Z" fill="url(#paint199_linear)"/>
<path fill-rule="evenodd" clip-rule="evenodd" d="M48.188 47.4083L49.7719 48.6399C49.6019 48.8555 49.4319 49.067 49.2577 49.2743L47.7112 47.9971C47.877 47.8022 48.0346 47.6073 48.1922 47.4083H48.188Z" fill="url(#paint200_linear)"/>
<path fill-rule="evenodd" clip-rule="evenodd" d="M47.8067 47.881L49.3615 49.1458C49.1874 49.3531 49.0091 49.5605 48.8266 49.7678L47.3091 48.4574C47.4791 48.2667 47.645 48.0759 47.8067 47.881Z" fill="url(#paint201_linear)"/>
<path fill-rule="evenodd" clip-rule="evenodd" d="M47.4079 48.3455L48.9337 49.6476C48.7554 49.8508 48.5689 50.054 48.3823 50.2531L44.3605 46.6163C44.6756 46.5292 45.028 46.5956 45.2892 46.8236L47.2462 48.528L47.4079 48.3455Z" fill="url(#paint202_linear)"/>
<path fill-rule="evenodd" clip-rule="evenodd" d="M44.5223 46.5832L48.4944 50.1329C48.3492 50.2904 48.2041 50.4439 48.0549 50.5973C48.0383 50.6139 48.0217 50.6222 48.0051 50.6305C47.9927 50.6388 47.9802 50.6471 47.9678 50.6554L47.9097 50.7051L43.8921 46.9025C44.062 46.7159 44.2901 46.6081 44.5223 46.579V46.5832Z" fill="url(#paint203_linear)"/>
<path fill-rule="evenodd" clip-rule="evenodd" d="M43.9879 46.8112L48.0429 50.6056C48.0305 50.6139 48.0175 50.6222 48.0051 50.6305C47.9927 50.6388 47.9802 50.6471 47.9678 50.6554C47.8973 50.7176 47.8232 50.7714 47.7444 50.8088C47.7403 50.8088 47.7361 50.8129 47.7361 50.8129C47.732 50.8171 47.7278 50.8171 47.7278 50.8212C47.5951 50.8793 47.4542 50.9124 47.3132 50.9124C47.2717 50.9124 47.2261 50.9083 47.1847 50.9041L43.6521 47.4042C43.6811 47.23 43.7599 47.06 43.8843 46.919C43.9175 46.8817 43.9548 46.8444 43.9921 46.8112H43.9879Z" fill="url(#paint204_linear)"/>
<path fill-rule="evenodd" clip-rule="evenodd" d="M43.6847 47.2549L47.4121 50.9042C47.379 50.9083 47.3416 50.9083 47.3085 50.9083C47.0763 50.9083 46.84 50.8254 46.6492 50.6595L43.9749 48.3248C43.6598 48.0511 43.5562 47.624 43.6847 47.2508V47.2549Z" fill="url(#paint205_linear)"/>
<path fill-rule="evenodd" clip-rule="evenodd" d="M43.8093 48.1464L44.0747 48.416L43.9752 48.3289C43.9088 48.2708 43.8549 48.2086 43.8093 48.1423V48.1464Z" fill="url(#paint206_linear)"/>
</g>
<defs>
<linearGradient id="paint0_linear" x1="11.378" y1="53.3999" x2="41.2561" y2="53.3999" gradientUnits="userSpaceOnUse">
<stop stop-color="#ED991C"/>
<stop offset="1" stop-color="#ED1C24"/>
</linearGradient>
<linearGradient id="paint1_linear" x1="11.378" y1="53.3999" x2="41.2561" y2="53.3999" gradientUnits="userSpaceOnUse">
<stop stop-color="#ED991C"/>
<stop offset="1" stop-color="#ED1C24"/>
</linearGradient>
<linearGradient id="paint2_linear" x1="11.378" y1="53.3999" x2="41.2561" y2="53.3999" gradientUnits="userSpaceOnUse">
<stop stop-color="#ED991C"/>
<stop offset="1" stop-color="#ED1C24"/>
</linearGradient>
<linearGradient id="paint3_linear" x1="11.378" y1="53.3999" x2="41.2561" y2="53.3999" gradientUnits="userSpaceOnUse">
<stop stop-color="#ED991C"/>
<stop offset="1" stop-color="#ED1C24"/>
</linearGradient>
<linearGradient id="paint4_linear" x1="11.378" y1="53.3999" x2="41.2561" y2="53.3999" gradientUnits="userSpaceOnUse">
<stop stop-color="#ED991C"/>
<stop offset="1" stop-color="#ED1C24"/>
</linearGradient>
<linearGradient id="paint5_linear" x1="11.378" y1="53.3999" x2="41.2561" y2="53.3999" gradientUnits="userSpaceOnUse">
<stop stop-color="#ED991C"/>
<stop offset="1" stop-color="#ED1C24"/>
</linearGradient>
<linearGradient id="paint6_linear" x1="11.378" y1="53.3999" x2="41.2561" y2="53.3999" gradientUnits="userSpaceOnUse">
<stop stop-color="#ED991C"/>
<stop offset="1" stop-color="#ED1C24"/>
</linearGradient>
<linearGradient id="paint7_linear" x1="11.378" y1="53.3999" x2="41.2561" y2="53.3999" gradientUnits="userSpaceOnUse">
<stop stop-color="#ED991C"/>
<stop offset="1" stop-color="#ED1C24"/>
</linearGradient>
<linearGradient id="paint8_linear" x1="11.378" y1="53.3999" x2="41.2561" y2="53.3999" gradientUnits="userSpaceOnUse">
<stop stop-color="#ED991C"/>
<stop offset="1" stop-color="#ED1C24"/>
</linearGradient>
<linearGradient id="paint9_linear" x1="11.378" y1="53.3999" x2="41.2561" y2="53.3999" gradientUnits="userSpaceOnUse">
<stop stop-color="#ED991C"/>
<stop offset="1" stop-color="#ED1C24"/>
</linearGradient>
<linearGradient id="paint10_linear" x1="11.378" y1="53.3999" x2="41.2561" y2="53.3999" gradientUnits="userSpaceOnUse">
<stop stop-color="#ED991C"/>
<stop offset="1" stop-color="#ED1C24"/>
</linearGradient>
<linearGradient id="paint11_linear" x1="11.378" y1="53.3999" x2="41.2561" y2="53.3999" gradientUnits="userSpaceOnUse">
<stop stop-color="#ED991C"/>
<stop offset="1" stop-color="#ED1C24"/>
</linearGradient>
<linearGradient id="paint12_linear" x1="11.378" y1="53.3999" x2="41.2561" y2="53.3999" gradientUnits="userSpaceOnUse">
<stop stop-color="#ED991C"/>
<stop offset="1" stop-color="#ED1C24"/>
</linearGradient>
<linearGradient id="paint13_linear" x1="11.378" y1="53.3999" x2="41.2561" y2="53.3999" gradientUnits="userSpaceOnUse">
<stop stop-color="#ED991C"/>
<stop offset="1" stop-color="#ED1C24"/>
</linearGradient>
<linearGradient id="paint14_linear" x1="11.378" y1="53.3999" x2="41.2561" y2="53.3999" gradientUnits="userSpaceOnUse">
<stop stop-color="#ED991C"/>
<stop offset="1" stop-color="#ED1C24"/>
</linearGradient>
<linearGradient id="paint15_linear" x1="11.378" y1="53.3999" x2="41.2561" y2="53.3999" gradientUnits="userSpaceOnUse">
<stop stop-color="#ED991C"/>
<stop offset="1" stop-color="#ED1C24"/>
</linearGradient>
<linearGradient id="paint16_linear" x1="11.378" y1="53.3999" x2="41.2561" y2="53.3999" gradientUnits="userSpaceOnUse">
<stop stop-color="#ED991C"/>
<stop offset="1" stop-color="#ED1C24"/>
</linearGradient>
<linearGradient id="paint17_linear" x1="11.378" y1="53.3999" x2="41.2561" y2="53.3999" gradientUnits="userSpaceOnUse">
<stop stop-color="#ED991C"/>
<stop offset="1" stop-color="#ED1C24"/>
</linearGradient>
<linearGradient id="paint18_linear" x1="11.378" y1="53.3999" x2="41.2561" y2="53.3999" gradientUnits="userSpaceOnUse">
<stop stop-color="#ED991C"/>
<stop offset="1" stop-color="#ED1C24"/>
</linearGradient>
<linearGradient id="paint19_linear" x1="11.378" y1="53.3999" x2="41.2561" y2="53.3999" gradientUnits="userSpaceOnUse">
<stop stop-color="#ED991C"/>
<stop offset="1" stop-color="#ED1C24"/>
</linearGradient>
<linearGradient id="paint20_linear" x1="11.378" y1="53.3999" x2="41.2561" y2="53.3999" gradientUnits="userSpaceOnUse">
<stop stop-color="#ED991C"/>
<stop offset="1" stop-color="#ED1C24"/>
</linearGradient>
<linearGradient id="paint21_linear" x1="11.378" y1="53.3999" x2="41.2561" y2="53.3999" gradientUnits="userSpaceOnUse">
<stop stop-color="#ED991C"/>
<stop offset="1" stop-color="#ED1C24"/>
</linearGradient>
<linearGradient id="paint22_linear" x1="11.378" y1="53.3999" x2="41.2561" y2="53.3999" gradientUnits="userSpaceOnUse">
<stop stop-color="#ED991C"/>
<stop offset="1" stop-color="#ED1C24"/>
</linearGradient>
<linearGradient id="paint23_linear" x1="11.378" y1="53.3999" x2="41.2561" y2="53.3999" gradientUnits="userSpaceOnUse">
<stop stop-color="#ED991C"/>
<stop offset="1" stop-color="#ED1C24"/>
</linearGradient>
<linearGradient id="paint24_linear" x1="11.378" y1="53.3999" x2="41.2561" y2="53.3999" gradientUnits="userSpaceOnUse">
<stop stop-color="#ED991C"/>
<stop offset="1" stop-color="#ED1C24"/>
</linearGradient>
<linearGradient id="paint25_linear" x1="11.378" y1="53.3999" x2="41.2561" y2="53.3999" gradientUnits="userSpaceOnUse">
<stop stop-color="#ED991C"/>
<stop offset="1" stop-color="#ED1C24"/>
</linearGradient>
<linearGradient id="paint26_linear" x1="11.378" y1="53.3999" x2="41.2561" y2="53.3999" gradientUnits="userSpaceOnUse">
<stop stop-color="#ED991C"/>
<stop offset="1" stop-color="#ED1C24"/>
</linearGradient>
<linearGradient id="paint27_linear" x1="11.378" y1="53.3999" x2="41.2561" y2="53.3999" gradientUnits="userSpaceOnUse">
<stop stop-color="#ED991C"/>
<stop offset="1" stop-color="#ED1C24"/>
</linearGradient>
<linearGradient id="paint28_linear" x1="11.378" y1="53.3999" x2="41.2561" y2="53.3999" gradientUnits="userSpaceOnUse">
<stop stop-color="#ED991C"/>
<stop offset="1" stop-color="#ED1C24"/>
</linearGradient>
<linearGradient id="paint29_linear" x1="11.378" y1="53.3999" x2="41.2561" y2="53.3999" gradientUnits="userSpaceOnUse">
<stop stop-color="#ED991C"/>
<stop offset="1" stop-color="#ED1C24"/>
</linearGradient>
<linearGradient id="paint30_linear" x1="11.378" y1="53.3999" x2="41.2561" y2="53.3999" gradientUnits="userSpaceOnUse">
<stop stop-color="#ED991C"/>
<stop offset="1" stop-color="#ED1C24"/>
</linearGradient>
<linearGradient id="paint31_linear" x1="11.378" y1="53.3999" x2="41.2561" y2="53.3999" gradientUnits="userSpaceOnUse">
<stop stop-color="#ED991C"/>
<stop offset="1" stop-color="#ED1C24"/>
</linearGradient>
<linearGradient id="paint32_linear" x1="11.378" y1="53.3999" x2="41.2561" y2="53.3999" gradientUnits="userSpaceOnUse">
<stop stop-color="#ED991C"/>
<stop offset="1" stop-color="#ED1C24"/>
</linearGradient>
<linearGradient id="paint33_linear" x1="11.378" y1="53.3999" x2="41.2561" y2="53.3999" gradientUnits="userSpaceOnUse">
<stop stop-color="#ED991C"/>
<stop offset="1" stop-color="#ED1C24"/>
</linearGradient>
<linearGradient id="paint34_linear" x1="11.378" y1="53.3999" x2="41.2561" y2="53.3999" gradientUnits="userSpaceOnUse">
<stop stop-color="#ED991C"/>
<stop offset="1" stop-color="#ED1C24"/>
</linearGradient>
<linearGradient id="paint35_linear" x1="11.378" y1="53.3999" x2="41.2561" y2="53.3999" gradientUnits="userSpaceOnUse">
<stop stop-color="#ED991C"/>
<stop offset="1" stop-color="#ED1C24"/>
</linearGradient>
<linearGradient id="paint36_linear" x1="11.378" y1="53.3999" x2="41.2561" y2="53.3999" gradientUnits="userSpaceOnUse">
<stop stop-color="#ED991C"/>
<stop offset="1" stop-color="#ED1C24"/>
</linearGradient>
<linearGradient id="paint37_linear" x1="11.378" y1="53.3999" x2="41.2561" y2="53.3999" gradientUnits="userSpaceOnUse">
<stop stop-color="#ED991C"/>
<stop offset="1" stop-color="#ED1C24"/>
</linearGradient>
<linearGradient id="paint38_linear" x1="11.378" y1="53.3999" x2="41.2561" y2="53.3999" gradientUnits="userSpaceOnUse">
<stop stop-color="#ED991C"/>
<stop offset="1" stop-color="#ED1C24"/>
</linearGradient>
<linearGradient id="paint39_linear" x1="11.378" y1="53.3999" x2="41.2561" y2="53.3999" gradientUnits="userSpaceOnUse">
<stop stop-color="#ED991C"/>
<stop offset="1" stop-color="#ED1C24"/>
</linearGradient>
<linearGradient id="paint40_linear" x1="11.378" y1="53.3999" x2="41.2561" y2="53.3999" gradientUnits="userSpaceOnUse">
<stop stop-color="#ED991C"/>
<stop offset="1" stop-color="#ED1C24"/>
</linearGradient>
<linearGradient id="paint41_linear" x1="11.378" y1="53.3999" x2="41.2561" y2="53.3999" gradientUnits="userSpaceOnUse">
<stop stop-color="#ED991C"/>
<stop offset="1" stop-color="#ED1C24"/>
</linearGradient>
<linearGradient id="paint42_linear" x1="11.378" y1="53.3999" x2="41.2561" y2="53.3999" gradientUnits="userSpaceOnUse">
<stop stop-color="#ED991C"/>
<stop offset="1" stop-color="#ED1C24"/>
</linearGradient>
<linearGradient id="paint43_linear" x1="11.378" y1="53.3999" x2="41.2561" y2="53.3999" gradientUnits="userSpaceOnUse">
<stop stop-color="#ED991C"/>
<stop offset="1" stop-color="#ED1C24"/>
</linearGradient>
<linearGradient id="paint44_linear" x1="11.378" y1="53.3999" x2="41.2561" y2="53.3999" gradientUnits="userSpaceOnUse">
<stop stop-color="#ED991C"/>
<stop offset="1" stop-color="#ED1C24"/>
</linearGradient>
<linearGradient id="paint45_linear" x1="11.378" y1="53.3999" x2="41.2561" y2="53.3999" gradientUnits="userSpaceOnUse">
<stop stop-color="#ED991C"/>
<stop offset="1" stop-color="#ED1C24"/>
</linearGradient>
<linearGradient id="paint46_linear" x1="11.378" y1="53.3999" x2="41.2561" y2="53.3999" gradientUnits="userSpaceOnUse">
<stop stop-color="#ED991C"/>
<stop offset="1" stop-color="#ED1C24"/>
</linearGradient>
<linearGradient id="paint47_linear" x1="11.378" y1="53.3999" x2="41.2561" y2="53.3999" gradientUnits="userSpaceOnUse">
<stop stop-color="#ED991C"/>
<stop offset="1" stop-color="#ED1C24"/>
</linearGradient>
<linearGradient id="paint48_linear" x1="11.378" y1="53.3999" x2="41.2561" y2="53.3999" gradientUnits="userSpaceOnUse">
<stop stop-color="#ED991C"/>
<stop offset="1" stop-color="#ED1C24"/>
</linearGradient>
<linearGradient id="paint49_linear" x1="11.378" y1="53.3999" x2="41.2561" y2="53.3999" gradientUnits="userSpaceOnUse">
<stop stop-color="#ED991C"/>
<stop offset="1" stop-color="#ED1C24"/>
</linearGradient>
<linearGradient id="paint50_linear" x1="11.378" y1="53.3999" x2="41.2561" y2="53.3999" gradientUnits="userSpaceOnUse">
<stop stop-color="#ED991C"/>
<stop offset="1" stop-color="#ED1C24"/>
</linearGradient>
<linearGradient id="paint51_linear" x1="11.378" y1="53.3999" x2="41.2561" y2="53.3999" gradientUnits="userSpaceOnUse">
<stop stop-color="#ED991C"/>
<stop offset="1" stop-color="#ED1C24"/>
</linearGradient>
<linearGradient id="paint52_linear" x1="11.378" y1="53.3999" x2="41.2561" y2="53.3999" gradientUnits="userSpaceOnUse">
<stop stop-color="#ED991C"/>
<stop offset="1" stop-color="#ED1C24"/>
</linearGradient>
<linearGradient id="paint53_linear" x1="11.378" y1="53.3999" x2="41.2561" y2="53.3999" gradientUnits="userSpaceOnUse">
<stop stop-color="#ED991C"/>
<stop offset="1" stop-color="#ED1C24"/>
</linearGradient>
<linearGradient id="paint54_linear" x1="11.378" y1="53.3999" x2="41.2561" y2="53.3999" gradientUnits="userSpaceOnUse">
<stop stop-color="#ED991C"/>
<stop offset="1" stop-color="#ED1C24"/>
</linearGradient>
<linearGradient id="paint55_linear" x1="11.378" y1="53.3999" x2="41.2561" y2="53.3999" gradientUnits="userSpaceOnUse">
<stop stop-color="#ED991C"/>
<stop offset="1" stop-color="#ED1C24"/>
</linearGradient>
<linearGradient id="paint56_linear" x1="11.378" y1="53.3999" x2="41.2561" y2="53.3999" gradientUnits="userSpaceOnUse">
<stop stop-color="#ED991C"/>
<stop offset="1" stop-color="#ED1C24"/>
</linearGradient>
<linearGradient id="paint57_linear" x1="11.378" y1="53.3999" x2="41.2561" y2="53.3999" gradientUnits="userSpaceOnUse">
<stop stop-color="#ED991C"/>
<stop offset="1" stop-color="#ED1C24"/>
</linearGradient>
<linearGradient id="paint58_linear" x1="11.378" y1="53.3999" x2="41.2561" y2="53.3999" gradientUnits="userSpaceOnUse">
<stop stop-color="#ED991C"/>
<stop offset="1" stop-color="#ED1C24"/>
</linearGradient>
<linearGradient id="paint59_linear" x1="11.378" y1="53.3999" x2="41.2561" y2="53.3999" gradientUnits="userSpaceOnUse">
<stop stop-color="#ED991C"/>
<stop offset="1" stop-color="#ED1C24"/>
</linearGradient>
<linearGradient id="paint60_linear" x1="11.378" y1="53.3999" x2="41.2561" y2="53.3999" gradientUnits="userSpaceOnUse">
<stop stop-color="#ED991C"/>
<stop offset="1" stop-color="#ED1C24"/>
</linearGradient>
<linearGradient id="paint61_linear" x1="11.378" y1="53.3999" x2="41.2561" y2="53.3999" gradientUnits="userSpaceOnUse">
<stop stop-color="#ED991C"/>
<stop offset="1" stop-color="#ED1C24"/>
</linearGradient>
<linearGradient id="paint62_linear" x1="11.378" y1="53.3999" x2="41.2561" y2="53.3999" gradientUnits="userSpaceOnUse">
<stop stop-color="#ED991C"/>
<stop offset="1" stop-color="#ED1C24"/>
</linearGradient>
<linearGradient id="paint63_linear" x1="11.378" y1="53.3999" x2="41.2561" y2="53.3999" gradientUnits="userSpaceOnUse">
<stop stop-color="#ED991C"/>
<stop offset="1" stop-color="#ED1C24"/>
</linearGradient>
<linearGradient id="paint64_linear" x1="11.378" y1="53.3999" x2="41.2561" y2="53.3999" gradientUnits="userSpaceOnUse">
<stop stop-color="#ED991C"/>
<stop offset="1" stop-color="#ED1C24"/>
</linearGradient>
<linearGradient id="paint65_linear" x1="11.378" y1="53.3999" x2="41.2561" y2="53.3999" gradientUnits="userSpaceOnUse">
<stop stop-color="#ED991C"/>
<stop offset="1" stop-color="#ED1C24"/>
</linearGradient>
<linearGradient id="paint66_linear" x1="11.378" y1="53.3999" x2="41.2561" y2="53.3999" gradientUnits="userSpaceOnUse">
<stop stop-color="#ED991C"/>
<stop offset="1" stop-color="#ED1C24"/>
</linearGradient>
<linearGradient id="paint67_linear" x1="11.378" y1="53.3999" x2="41.2561" y2="53.3999" gradientUnits="userSpaceOnUse">
<stop stop-color="#ED991C"/>
<stop offset="1" stop-color="#ED1C24"/>
</linearGradient>
<linearGradient id="paint68_linear" x1="11.378" y1="53.3999" x2="41.2561" y2="53.3999" gradientUnits="userSpaceOnUse">
<stop stop-color="#ED991C"/>
<stop offset="1" stop-color="#ED1C24"/>
</linearGradient>
<linearGradient id="paint69_linear" x1="11.378" y1="53.3999" x2="41.2561" y2="53.3999" gradientUnits="userSpaceOnUse">
<stop stop-color="#ED991C"/>
<stop offset="1" stop-color="#ED1C24"/>
</linearGradient>
<linearGradient id="paint70_linear" x1="11.378" y1="53.3999" x2="41.2561" y2="53.3999" gradientUnits="userSpaceOnUse">
<stop stop-color="#ED991C"/>
<stop offset="1" stop-color="#ED1C24"/>
</linearGradient>
<linearGradient id="paint71_linear" x1="11.378" y1="53.3999" x2="41.2561" y2="53.3999" gradientUnits="userSpaceOnUse">
<stop stop-color="#ED991C"/>
<stop offset="1" stop-color="#ED1C24"/>
</linearGradient>
<linearGradient id="paint72_linear" x1="11.378" y1="53.3999" x2="41.2561" y2="53.3999" gradientUnits="userSpaceOnUse">
<stop stop-color="#ED991C"/>
<stop offset="1" stop-color="#ED1C24"/>
</linearGradient>
<linearGradient id="paint73_linear" x1="11.378" y1="53.3999" x2="41.2561" y2="53.3999" gradientUnits="userSpaceOnUse">
<stop stop-color="#ED991C"/>
<stop offset="1" stop-color="#ED1C24"/>
</linearGradient>
<linearGradient id="paint74_linear" x1="11.378" y1="53.3999" x2="41.2561" y2="53.3999" gradientUnits="userSpaceOnUse">
<stop stop-color="#ED991C"/>
<stop offset="1" stop-color="#ED1C24"/>
</linearGradient>
<linearGradient id="paint75_linear" x1="11.378" y1="53.3999" x2="41.2561" y2="53.3999" gradientUnits="userSpaceOnUse">
<stop stop-color="#ED991C"/>
<stop offset="1" stop-color="#ED1C24"/>
</linearGradient>
<linearGradient id="paint76_linear" x1="11.378" y1="53.3999" x2="41.2561" y2="53.3999" gradientUnits="userSpaceOnUse">
<stop stop-color="#ED991C"/>
<stop offset="1" stop-color="#ED1C24"/>
</linearGradient>
<linearGradient id="paint77_linear" x1="11.378" y1="53.3999" x2="41.2561" y2="53.3999" gradientUnits="userSpaceOnUse">
<stop stop-color="#ED991C"/>
<stop offset="1" stop-color="#ED1C24"/>
</linearGradient>
<linearGradient id="paint78_linear" x1="11.378" y1="53.3999" x2="41.2561" y2="53.3999" gradientUnits="userSpaceOnUse">
<stop stop-color="#ED991C"/>
<stop offset="1" stop-color="#ED1C24"/>
</linearGradient>
<linearGradient id="paint79_linear" x1="11.378" y1="53.3999" x2="41.2561" y2="53.3999" gradientUnits="userSpaceOnUse">
<stop stop-color="#ED991C"/>
<stop offset="1" stop-color="#ED1C24"/>
</linearGradient>
<linearGradient id="paint80_linear" x1="11.378" y1="53.3999" x2="41.2561" y2="53.3999" gradientUnits="userSpaceOnUse">
<stop stop-color="#ED991C"/>
<stop offset="1" stop-color="#ED1C24"/>
</linearGradient>
<linearGradient id="paint81_linear" x1="11.378" y1="53.3999" x2="41.2561" y2="53.3999" gradientUnits="userSpaceOnUse">
<stop stop-color="#ED991C"/>
<stop offset="1" stop-color="#ED1C24"/>
</linearGradient>
<linearGradient id="paint82_linear" x1="11.378" y1="53.3999" x2="41.2561" y2="53.3999" gradientUnits="userSpaceOnUse">
<stop stop-color="#ED991C"/>
<stop offset="1" stop-color="#ED1C24"/>
</linearGradient>
<linearGradient id="paint83_linear" x1="11.378" y1="53.3999" x2="41.2561" y2="53.3999" gradientUnits="userSpaceOnUse">
<stop stop-color="#ED991C"/>
<stop offset="1" stop-color="#ED1C24"/>
</linearGradient>
<linearGradient id="paint84_linear" x1="11.378" y1="53.3999" x2="41.2561" y2="53.3999" gradientUnits="userSpaceOnUse">
<stop stop-color="#ED991C"/>
<stop offset="1" stop-color="#ED1C24"/>
</linearGradient>
<linearGradient id="paint85_linear" x1="11.378" y1="53.3999" x2="41.2561" y2="53.3999" gradientUnits="userSpaceOnUse">
<stop stop-color="#ED991C"/>
<stop offset="1" stop-color="#ED1C24"/>
</linearGradient>
<linearGradient id="paint86_linear" x1="11.378" y1="53.3999" x2="41.2561" y2="53.3999" gradientUnits="userSpaceOnUse">
<stop stop-color="#ED991C"/>
<stop offset="1" stop-color="#ED1C24"/>
</linearGradient>
<linearGradient id="paint87_linear" x1="11.378" y1="53.3999" x2="41.2561" y2="53.3999" gradientUnits="userSpaceOnUse">
<stop stop-color="#ED991C"/>
<stop offset="1" stop-color="#ED1C24"/>
</linearGradient>
<linearGradient id="paint88_linear" x1="11.378" y1="53.3999" x2="41.2561" y2="53.3999" gradientUnits="userSpaceOnUse">
<stop stop-color="#ED991C"/>
<stop offset="1" stop-color="#ED1C24"/>
</linearGradient>
<linearGradient id="paint89_linear" x1="11.378" y1="53.3999" x2="41.2561" y2="53.3999" gradientUnits="userSpaceOnUse">
<stop stop-color="#ED991C"/>
<stop offset="1" stop-color="#ED1C24"/>
</linearGradient>
<linearGradient id="paint90_linear" x1="11.378" y1="53.3999" x2="41.2561" y2="53.3999" gradientUnits="userSpaceOnUse">
<stop stop-color="#ED991C"/>
<stop offset="1" stop-color="#ED1C24"/>
</linearGradient>
<linearGradient id="paint91_linear" x1="11.378" y1="53.3999" x2="41.2561" y2="53.3999" gradientUnits="userSpaceOnUse">
<stop stop-color="#ED991C"/>
<stop offset="1" stop-color="#ED1C24"/>
</linearGradient>
<linearGradient id="paint92_linear" x1="11.378" y1="53.3999" x2="41.2561" y2="53.3999" gradientUnits="userSpaceOnUse">
<stop stop-color="#ED991C"/>
<stop offset="1" stop-color="#ED1C24"/>
</linearGradient>
<linearGradient id="paint93_linear" x1="11.378" y1="53.3999" x2="41.2561" y2="53.3999" gradientUnits="userSpaceOnUse">
<stop stop-color="#ED991C"/>
<stop offset="1" stop-color="#ED1C24"/>
</linearGradient>
<linearGradient id="paint94_linear" x1="11.378" y1="53.3999" x2="41.2561" y2="53.3999" gradientUnits="userSpaceOnUse">
<stop stop-color="#ED991C"/>
<stop offset="1" stop-color="#ED1C24"/>
</linearGradient>
<linearGradient id="paint95_linear" x1="11.378" y1="53.3999" x2="41.2561" y2="53.3999" gradientUnits="userSpaceOnUse">
<stop stop-color="#ED991C"/>
<stop offset="1" stop-color="#ED1C24"/>
</linearGradient>
<linearGradient id="paint96_linear" x1="11.378" y1="53.3999" x2="41.2561" y2="53.3999" gradientUnits="userSpaceOnUse">
<stop stop-color="#ED991C"/>
<stop offset="1" stop-color="#ED1C24"/>
</linearGradient>
<linearGradient id="paint97_linear" x1="11.378" y1="53.3999" x2="41.2561" y2="53.3999" gradientUnits="userSpaceOnUse">
<stop stop-color="#ED991C"/>
<stop offset="1" stop-color="#ED1C24"/>
</linearGradient>
<linearGradient id="paint98_linear" x1="11.378" y1="53.3999" x2="41.2561" y2="53.3999" gradientUnits="userSpaceOnUse">
<stop stop-color="#ED991C"/>
<stop offset="1" stop-color="#ED1C24"/>
</linearGradient>
<linearGradient id="paint99_linear" x1="11.378" y1="53.3999" x2="41.2561" y2="53.3999" gradientUnits="userSpaceOnUse">
<stop stop-color="#ED991C"/>
<stop offset="1" stop-color="#ED1C24"/>
</linearGradient>
<linearGradient id="paint100_linear" x1="11.378" y1="53.3999" x2="41.2561" y2="53.3999" gradientUnits="userSpaceOnUse">
<stop stop-color="#ED991C"/>
<stop offset="1" stop-color="#ED1C24"/>
</linearGradient>
<linearGradient id="paint101_linear" x1="11.378" y1="53.3999" x2="41.2561" y2="53.3999" gradientUnits="userSpaceOnUse">
<stop stop-color="#ED991C"/>
<stop offset="1" stop-color="#ED1C24"/>
</linearGradient>
<linearGradient id="paint102_linear" x1="11.378" y1="53.3999" x2="41.2561" y2="53.3999" gradientUnits="userSpaceOnUse">
<stop stop-color="#ED991C"/>
<stop offset="1" stop-color="#ED1C24"/>
</linearGradient>
<linearGradient id="paint103_linear" x1="11.378" y1="53.3999" x2="41.2561" y2="53.3999" gradientUnits="userSpaceOnUse">
<stop stop-color="#ED991C"/>
<stop offset="1" stop-color="#ED1C24"/>
</linearGradient>
<linearGradient id="paint104_linear" x1="11.378" y1="53.3999" x2="41.2561" y2="53.3999" gradientUnits="userSpaceOnUse">
<stop stop-color="#ED991C"/>
<stop offset="1" stop-color="#ED1C24"/>
</linearGradient>
<linearGradient id="paint105_linear" x1="11.378" y1="53.3999" x2="41.2561" y2="53.3999" gradientUnits="userSpaceOnUse">
<stop stop-color="#ED991C"/>
<stop offset="1" stop-color="#ED1C24"/>
</linearGradient>
<linearGradient id="paint106_linear" x1="11.378" y1="53.3999" x2="41.2561" y2="53.3999" gradientUnits="userSpaceOnUse">
<stop stop-color="#ED991C"/>
<stop offset="1" stop-color="#ED1C24"/>
</linearGradient>
<linearGradient id="paint107_linear" x1="11.378" y1="53.3999" x2="41.2561" y2="53.3999" gradientUnits="userSpaceOnUse">
<stop stop-color="#ED991C"/>
<stop offset="1" stop-color="#ED1C24"/>
</linearGradient>
<linearGradient id="paint108_linear" x1="11.378" y1="53.3999" x2="41.2561" y2="53.3999" gradientUnits="userSpaceOnUse">
<stop stop-color="#ED991C"/>
<stop offset="1" stop-color="#ED1C24"/>
</linearGradient>
<linearGradient id="paint109_linear" x1="11.378" y1="53.3999" x2="41.2561" y2="53.3999" gradientUnits="userSpaceOnUse">
<stop stop-color="#ED991C"/>
<stop offset="1" stop-color="#ED1C24"/>
</linearGradient>
<linearGradient id="paint110_linear" x1="11.378" y1="53.3999" x2="41.2561" y2="53.3999" gradientUnits="userSpaceOnUse">
<stop stop-color="#ED991C"/>
<stop offset="1" stop-color="#ED1C24"/>
</linearGradient>
<linearGradient id="paint111_linear" x1="11.378" y1="53.3999" x2="41.2561" y2="53.3999" gradientUnits="userSpaceOnUse">
<stop stop-color="#ED991C"/>
<stop offset="1" stop-color="#ED1C24"/>
</linearGradient>
<linearGradient id="paint112_linear" x1="11.378" y1="53.3999" x2="41.2561" y2="53.3999" gradientUnits="userSpaceOnUse">
<stop stop-color="#ED991C"/>
<stop offset="1" stop-color="#ED1C24"/>
</linearGradient>
<linearGradient id="paint113_linear" x1="11.378" y1="53.3999" x2="41.2561" y2="53.3999" gradientUnits="userSpaceOnUse">
<stop stop-color="#ED991C"/>
<stop offset="1" stop-color="#ED1C24"/>
</linearGradient>
<linearGradient id="paint114_linear" x1="11.378" y1="53.3999" x2="41.2561" y2="53.3999" gradientUnits="userSpaceOnUse">
<stop stop-color="#ED991C"/>
<stop offset="1" stop-color="#ED1C24"/>
</linearGradient>
<linearGradient id="paint115_linear" x1="11.378" y1="53.3999" x2="41.2561" y2="53.3999" gradientUnits="userSpaceOnUse">
<stop stop-color="#ED991C"/>
<stop offset="1" stop-color="#ED1C24"/>
</linearGradient>
<linearGradient id="paint116_linear" x1="11.378" y1="53.3999" x2="41.2561" y2="53.3999" gradientUnits="userSpaceOnUse">
<stop stop-color="#ED991C"/>
<stop offset="1" stop-color="#ED1C24"/>
</linearGradient>
<linearGradient id="paint117_linear" x1="11.378" y1="53.3999" x2="41.2561" y2="53.3999" gradientUnits="userSpaceOnUse">
<stop stop-color="#ED991C"/>
<stop offset="1" stop-color="#ED1C24"/>
</linearGradient>
<linearGradient id="paint118_linear" x1="11.378" y1="53.3999" x2="41.2561" y2="53.3999" gradientUnits="userSpaceOnUse">
<stop stop-color="#ED991C"/>
<stop offset="1" stop-color="#ED1C24"/>
</linearGradient>
<linearGradient id="paint119_linear" x1="11.378" y1="53.3999" x2="41.2561" y2="53.3999" gradientUnits="userSpaceOnUse">
<stop stop-color="#ED991C"/>
<stop offset="1" stop-color="#ED1C24"/>
</linearGradient>
<linearGradient id="paint120_linear" x1="11.378" y1="53.3999" x2="41.2561" y2="53.3999" gradientUnits="userSpaceOnUse">
<stop stop-color="#ED991C"/>
<stop offset="1" stop-color="#ED1C24"/>
</linearGradient>
<linearGradient id="paint121_linear" x1="11.378" y1="53.3999" x2="41.2561" y2="53.3999" gradientUnits="userSpaceOnUse">
<stop stop-color="#ED991C"/>
<stop offset="1" stop-color="#ED1C24"/>
</linearGradient>
<linearGradient id="paint122_linear" x1="11.378" y1="53.3999" x2="41.2561" y2="53.3999" gradientUnits="userSpaceOnUse">
<stop stop-color="#ED991C"/>
<stop offset="1" stop-color="#ED1C24"/>
</linearGradient>
<linearGradient id="paint123_linear" x1="11.378" y1="53.3999" x2="41.2561" y2="53.3999" gradientUnits="userSpaceOnUse">
<stop stop-color="#ED991C"/>
<stop offset="1" stop-color="#ED1C24"/>
</linearGradient>
<linearGradient id="paint124_linear" x1="11.378" y1="53.3999" x2="41.2561" y2="53.3999" gradientUnits="userSpaceOnUse">
<stop stop-color="#ED991C"/>
<stop offset="1" stop-color="#ED1C24"/>
</linearGradient>
<linearGradient id="paint125_linear" x1="11.378" y1="53.3999" x2="41.2561" y2="53.3999" gradientUnits="userSpaceOnUse">
<stop stop-color="#ED991C"/>
<stop offset="1" stop-color="#ED1C24"/>
</linearGradient>
<linearGradient id="paint126_linear" x1="11.378" y1="53.3999" x2="41.2561" y2="53.3999" gradientUnits="userSpaceOnUse">
<stop stop-color="#ED991C"/>
<stop offset="1" stop-color="#ED1C24"/>
</linearGradient>
<linearGradient id="paint127_linear" x1="11.378" y1="53.3999" x2="41.2561" y2="53.3999" gradientUnits="userSpaceOnUse">
<stop stop-color="#ED991C"/>
<stop offset="1" stop-color="#ED1C24"/>
</linearGradient>
<linearGradient id="paint128_linear" x1="11.378" y1="53.3999" x2="41.2561" y2="53.3999" gradientUnits="userSpaceOnUse">
<stop stop-color="#ED991C"/>
<stop offset="1" stop-color="#ED1C24"/>
</linearGradient>
<linearGradient id="paint129_linear" x1="11.378" y1="53.3999" x2="41.2561" y2="53.3999" gradientUnits="userSpaceOnUse">
<stop stop-color="#ED991C"/>
<stop offset="1" stop-color="#ED1C24"/>
</linearGradient>
<linearGradient id="paint130_linear" x1="11.378" y1="53.3999" x2="41.2561" y2="53.3999" gradientUnits="userSpaceOnUse">
<stop stop-color="#ED991C"/>
<stop offset="1" stop-color="#ED1C24"/>
</linearGradient>
<linearGradient id="paint131_linear" x1="11.378" y1="53.3999" x2="41.2561" y2="53.3999" gradientUnits="userSpaceOnUse">
<stop stop-color="#ED991C"/>
<stop offset="1" stop-color="#ED1C24"/>
</linearGradient>
<linearGradient id="paint132_linear" x1="11.378" y1="53.3999" x2="41.2561" y2="53.3999" gradientUnits="userSpaceOnUse">
<stop stop-color="#ED991C"/>
<stop offset="1" stop-color="#ED1C24"/>
</linearGradient>
<linearGradient id="paint133_linear" x1="11.378" y1="53.3999" x2="41.2561" y2="53.3999" gradientUnits="userSpaceOnUse">
<stop stop-color="#ED991C"/>
<stop offset="1" stop-color="#ED1C24"/>
</linearGradient>
<linearGradient id="paint134_linear" x1="11.378" y1="53.3999" x2="41.2561" y2="53.3999" gradientUnits="userSpaceOnUse">
<stop stop-color="#ED991C"/>
<stop offset="1" stop-color="#ED1C24"/>
</linearGradient>
<linearGradient id="paint135_linear" x1="11.378" y1="53.3999" x2="41.2561" y2="53.3999" gradientUnits="userSpaceOnUse">
<stop stop-color="#ED991C"/>
<stop offset="1" stop-color="#ED1C24"/>
</linearGradient>
<linearGradient id="paint136_linear" x1="11.378" y1="53.3999" x2="41.2561" y2="53.3999" gradientUnits="userSpaceOnUse">
<stop stop-color="#ED991C"/>
<stop offset="1" stop-color="#ED1C24"/>
</linearGradient>
<linearGradient id="paint137_linear" x1="11.378" y1="53.3999" x2="41.2561" y2="53.3999" gradientUnits="userSpaceOnUse">
<stop stop-color="#ED991C"/>
<stop offset="1" stop-color="#ED1C24"/>
</linearGradient>
<linearGradient id="paint138_linear" x1="11.378" y1="53.3999" x2="41.2561" y2="53.3999" gradientUnits="userSpaceOnUse">
<stop stop-color="#ED991C"/>
<stop offset="1" stop-color="#ED1C24"/>
</linearGradient>
<linearGradient id="paint139_linear" x1="11.378" y1="53.3999" x2="41.2561" y2="53.3999" gradientUnits="userSpaceOnUse">
<stop stop-color="#ED991C"/>
<stop offset="1" stop-color="#ED1C24"/>
</linearGradient>
<linearGradient id="paint140_linear" x1="11.378" y1="53.3999" x2="41.2561" y2="53.3999" gradientUnits="userSpaceOnUse">
<stop stop-color="#ED991C"/>
<stop offset="1" stop-color="#ED1C24"/>
</linearGradient>
<linearGradient id="paint141_linear" x1="11.378" y1="53.3999" x2="41.2561" y2="53.3999" gradientUnits="userSpaceOnUse">
<stop stop-color="#ED991C"/>
<stop offset="1" stop-color="#ED1C24"/>
</linearGradient>
<linearGradient id="paint142_linear" x1="11.378" y1="53.3999" x2="41.2561" y2="53.3999" gradientUnits="userSpaceOnUse">
<stop stop-color="#ED991C"/>
<stop offset="1" stop-color="#ED1C24"/>
</linearGradient>
<linearGradient id="paint143_linear" x1="11.378" y1="53.3999" x2="41.2561" y2="53.3999" gradientUnits="userSpaceOnUse">
<stop stop-color="#ED991C"/>
<stop offset="1" stop-color="#ED1C24"/>
</linearGradient>
<linearGradient id="paint144_linear" x1="11.378" y1="53.3999" x2="41.2561" y2="53.3999" gradientUnits="userSpaceOnUse">
<stop stop-color="#ED991C"/>
<stop offset="1" stop-color="#ED1C24"/>
</linearGradient>
<linearGradient id="paint145_linear" x1="11.378" y1="53.3999" x2="41.2561" y2="53.3999" gradientUnits="userSpaceOnUse">
<stop stop-color="#ED991C"/>
<stop offset="1" stop-color="#ED1C24"/>
</linearGradient>
<linearGradient id="paint146_linear" x1="11.378" y1="53.3999" x2="41.2561" y2="53.3999" gradientUnits="userSpaceOnUse">
<stop stop-color="#ED991C"/>
<stop offset="1" stop-color="#ED1C24"/>
</linearGradient>
<linearGradient id="paint147_linear" x1="11.378" y1="53.3999" x2="41.2561" y2="53.3999" gradientUnits="userSpaceOnUse">
<stop stop-color="#ED991C"/>
<stop offset="1" stop-color="#ED1C24"/>
</linearGradient>
<linearGradient id="paint148_linear" x1="11.378" y1="53.3999" x2="41.2561" y2="53.3999" gradientUnits="userSpaceOnUse">
<stop stop-color="#ED991C"/>
<stop offset="1" stop-color="#ED1C24"/>
</linearGradient>
<linearGradient id="paint149_linear" x1="11.378" y1="53.3999" x2="41.2561" y2="53.3999" gradientUnits="userSpaceOnUse">
<stop stop-color="#ED991C"/>
<stop offset="1" stop-color="#ED1C24"/>
</linearGradient>
<linearGradient id="paint150_linear" x1="11.378" y1="53.3999" x2="41.2561" y2="53.3999" gradientUnits="userSpaceOnUse">
<stop stop-color="#ED991C"/>
<stop offset="1" stop-color="#ED1C24"/>
</linearGradient>
<linearGradient id="paint151_linear" x1="11.378" y1="53.3999" x2="41.2561" y2="53.3999" gradientUnits="userSpaceOnUse">
<stop stop-color="#ED991C"/>
<stop offset="1" stop-color="#ED1C24"/>
</linearGradient>
<linearGradient id="paint152_linear" x1="11.378" y1="53.3999" x2="41.2561" y2="53.3999" gradientUnits="userSpaceOnUse">
<stop stop-color="#ED991C"/>
<stop offset="1" stop-color="#ED1C24"/>
</linearGradient>
<linearGradient id="paint153_linear" x1="11.378" y1="53.3999" x2="41.2561" y2="53.3999" gradientUnits="userSpaceOnUse">
<stop stop-color="#ED991C"/>
<stop offset="1" stop-color="#ED1C24"/>
</linearGradient>
<linearGradient id="paint154_linear" x1="11.378" y1="53.3999" x2="41.2561" y2="53.3999" gradientUnits="userSpaceOnUse">
<stop stop-color="#ED991C"/>
<stop offset="1" stop-color="#ED1C24"/>
</linearGradient>
<linearGradient id="paint155_linear" x1="11.378" y1="53.3999" x2="41.2561" y2="53.3999" gradientUnits="userSpaceOnUse">
<stop stop-color="#ED991C"/>
<stop offset="1" stop-color="#ED1C24"/>
</linearGradient>
<linearGradient id="paint156_linear" x1="11.378" y1="53.3999" x2="41.2561" y2="53.3999" gradientUnits="userSpaceOnUse">
<stop stop-color="#ED991C"/>
<stop offset="1" stop-color="#ED1C24"/>
</linearGradient>
<linearGradient id="paint157_linear" x1="11.378" y1="53.3999" x2="41.2561" y2="53.3999" gradientUnits="userSpaceOnUse">
<stop stop-color="#ED991C"/>
<stop offset="1" stop-color="#ED1C24"/>
</linearGradient>
<linearGradient id="paint158_linear" x1="11.378" y1="53.3999" x2="41.2561" y2="53.3999" gradientUnits="userSpaceOnUse">
<stop stop-color="#ED991C"/>
<stop offset="1" stop-color="#ED1C24"/>
</linearGradient>
<linearGradient id="paint159_linear" x1="11.378" y1="53.3999" x2="41.2561" y2="53.3999" gradientUnits="userSpaceOnUse">
<stop stop-color="#ED991C"/>
<stop offset="1" stop-color="#ED1C24"/>
</linearGradient>
<linearGradient id="paint160_linear" x1="11.378" y1="53.3999" x2="41.2561" y2="53.3999" gradientUnits="userSpaceOnUse">
<stop stop-color="#ED991C"/>
<stop offset="1" stop-color="#ED1C24"/>
</linearGradient>
<linearGradient id="paint161_linear" x1="11.378" y1="53.3999" x2="41.2561" y2="53.3999" gradientUnits="userSpaceOnUse">
<stop stop-color="#ED991C"/>
<stop offset="1" stop-color="#ED1C24"/>
</linearGradient>
<linearGradient id="paint162_linear" x1="11.378" y1="53.3999" x2="41.2561" y2="53.3999" gradientUnits="userSpaceOnUse">
<stop stop-color="#ED991C"/>
<stop offset="1" stop-color="#ED1C24"/>
</linearGradient>
<linearGradient id="paint163_linear" x1="11.378" y1="53.3999" x2="41.2561" y2="53.3999" gradientUnits="userSpaceOnUse">
<stop stop-color="#ED991C"/>
<stop offset="1" stop-color="#ED1C24"/>
</linearGradient>
<linearGradient id="paint164_linear" x1="11.378" y1="53.3999" x2="41.2561" y2="53.3999" gradientUnits="userSpaceOnUse">
<stop stop-color="#ED991C"/>
<stop offset="1" stop-color="#ED1C24"/>
</linearGradient>
<linearGradient id="paint165_linear" x1="11.378" y1="53.3999" x2="41.2561" y2="53.3999" gradientUnits="userSpaceOnUse">
<stop stop-color="#ED991C"/>
<stop offset="1" stop-color="#ED1C24"/>
</linearGradient>
<linearGradient id="paint166_linear" x1="11.378" y1="53.3999" x2="41.2561" y2="53.3999" gradientUnits="userSpaceOnUse">
<stop stop-color="#ED991C"/>
<stop offset="1" stop-color="#ED1C24"/>
</linearGradient>
<linearGradient id="paint167_linear" x1="11.378" y1="53.3999" x2="41.2561" y2="53.3999" gradientUnits="userSpaceOnUse">
<stop stop-color="#ED991C"/>
<stop offset="1" stop-color="#ED1C24"/>
</linearGradient>
<linearGradient id="paint168_linear" x1="11.378" y1="53.3999" x2="41.2561" y2="53.3999" gradientUnits="userSpaceOnUse">
<stop stop-color="#ED991C"/>
<stop offset="1" stop-color="#ED1C24"/>
</linearGradient>
<linearGradient id="paint169_linear" x1="11.378" y1="53.3999" x2="41.2561" y2="53.3999" gradientUnits="userSpaceOnUse">
<stop stop-color="#ED991C"/>
<stop offset="1" stop-color="#ED1C24"/>
</linearGradient>
<linearGradient id="paint170_linear" x1="11.378" y1="53.3999" x2="41.2561" y2="53.3999" gradientUnits="userSpaceOnUse">
<stop stop-color="#ED991C"/>
<stop offset="1" stop-color="#ED1C24"/>
</linearGradient>
<linearGradient id="paint171_linear" x1="11.378" y1="53.3999" x2="41.2561" y2="53.3999" gradientUnits="userSpaceOnUse">
<stop stop-color="#ED991C"/>
<stop offset="1" stop-color="#ED1C24"/>
</linearGradient>
<linearGradient id="paint172_linear" x1="11.378" y1="53.3999" x2="41.2561" y2="53.3999" gradientUnits="userSpaceOnUse">
<stop stop-color="#ED991C"/>
<stop offset="1" stop-color="#ED1C24"/>
</linearGradient>
<linearGradient id="paint173_linear" x1="11.378" y1="53.3999" x2="41.2561" y2="53.3999" gradientUnits="userSpaceOnUse">
<stop stop-color="#ED991C"/>
<stop offset="1" stop-color="#ED1C24"/>
</linearGradient>
<linearGradient id="paint174_linear" x1="11.378" y1="53.3999" x2="41.2561" y2="53.3999" gradientUnits="userSpaceOnUse">
<stop stop-color="#ED991C"/>
<stop offset="1" stop-color="#ED1C24"/>
</linearGradient>
<linearGradient id="paint175_linear" x1="11.378" y1="53.3999" x2="41.2561" y2="53.3999" gradientUnits="userSpaceOnUse">
<stop stop-color="#ED991C"/>
<stop offset="1" stop-color="#ED1C24"/>
</linearGradient>
<linearGradient id="paint176_linear" x1="11.378" y1="53.3999" x2="41.2561" y2="53.3999" gradientUnits="userSpaceOnUse">
<stop stop-color="#ED991C"/>
<stop offset="1" stop-color="#ED1C24"/>
</linearGradient>
<linearGradient id="paint177_linear" x1="11.378" y1="53.3999" x2="41.2561" y2="53.3999" gradientUnits="userSpaceOnUse">
<stop stop-color="#ED991C"/>
<stop offset="1" stop-color="#ED1C24"/>
</linearGradient>
<linearGradient id="paint178_linear" x1="11.378" y1="53.3999" x2="41.2561" y2="53.3999" gradientUnits="userSpaceOnUse">
<stop stop-color="#ED991C"/>
<stop offset="1" stop-color="#ED1C24"/>
</linearGradient>
<linearGradient id="paint179_linear" x1="11.378" y1="53.3999" x2="41.2561" y2="53.3999" gradientUnits="userSpaceOnUse">
<stop stop-color="#ED991C"/>
<stop offset="1" stop-color="#ED1C24"/>
</linearGradient>
<linearGradient id="paint180_linear" x1="11.378" y1="53.3999" x2="41.2561" y2="53.3999" gradientUnits="userSpaceOnUse">
<stop stop-color="#ED991C"/>
<stop offset="1" stop-color="#ED1C24"/>
</linearGradient>
<linearGradient id="paint181_linear" x1="11.378" y1="53.3999" x2="41.2561" y2="53.3999" gradientUnits="userSpaceOnUse">
<stop stop-color="#ED991C"/>
<stop offset="1" stop-color="#ED1C24"/>
</linearGradient>
<linearGradient id="paint182_linear" x1="11.378" y1="53.3999" x2="41.2561" y2="53.3999" gradientUnits="userSpaceOnUse">
<stop stop-color="#ED991C"/>
<stop offset="1" stop-color="#ED1C24"/>
</linearGradient>
<linearGradient id="paint183_linear" x1="11.378" y1="53.3999" x2="41.2561" y2="53.3999" gradientUnits="userSpaceOnUse">
<stop stop-color="#ED991C"/>
<stop offset="1" stop-color="#ED1C24"/>
</linearGradient>
<linearGradient id="paint184_linear" x1="11.378" y1="53.3999" x2="41.2561" y2="53.3999" gradientUnits="userSpaceOnUse">
<stop stop-color="#ED991C"/>
<stop offset="1" stop-color="#ED1C24"/>
</linearGradient>
<linearGradient id="paint185_linear" x1="11.378" y1="53.3999" x2="41.2561" y2="53.3999" gradientUnits="userSpaceOnUse">
<stop stop-color="#ED991C"/>
<stop offset="1" stop-color="#ED1C24"/>
</linearGradient>
<linearGradient id="paint186_linear" x1="11.378" y1="53.3999" x2="41.2561" y2="53.3999" gradientUnits="userSpaceOnUse">
<stop stop-color="#ED991C"/>
<stop offset="1" stop-color="#ED1C24"/>
</linearGradient>
<linearGradient id="paint187_linear" x1="11.378" y1="53.3999" x2="41.2561" y2="53.3999" gradientUnits="userSpaceOnUse">
<stop stop-color="#ED991C"/>
<stop offset="1" stop-color="#ED1C24"/>
</linearGradient>
<linearGradient id="paint188_linear" x1="11.378" y1="53.3999" x2="41.2561" y2="53.3999" gradientUnits="userSpaceOnUse">
<stop stop-color="#ED991C"/>
<stop offset="1" stop-color="#ED1C24"/>
</linearGradient>
<linearGradient id="paint189_linear" x1="11.378" y1="53.3999" x2="41.2561" y2="53.3999" gradientUnits="userSpaceOnUse">
<stop stop-color="#ED991C"/>
<stop offset="1" stop-color="#ED1C24"/>
</linearGradient>
<linearGradient id="paint190_linear" x1="11.378" y1="53.3999" x2="41.2561" y2="53.3999" gradientUnits="userSpaceOnUse">
<stop stop-color="#ED991C"/>
<stop offset="1" stop-color="#ED1C24"/>
</linearGradient>
<linearGradient id="paint191_linear" x1="11.378" y1="53.3999" x2="41.2561" y2="53.3999" gradientUnits="userSpaceOnUse">
<stop stop-color="#ED991C"/>
<stop offset="1" stop-color="#ED1C24"/>
</linearGradient>
<linearGradient id="paint192_linear" x1="11.378" y1="53.3999" x2="41.2561" y2="53.3999" gradientUnits="userSpaceOnUse">
<stop stop-color="#ED991C"/>
<stop offset="1" stop-color="#ED1C24"/>
</linearGradient>
<linearGradient id="paint193_linear" x1="11.378" y1="53.3999" x2="41.2561" y2="53.3999" gradientUnits="userSpaceOnUse">
<stop stop-color="#ED991C"/>
<stop offset="1" stop-color="#ED1C24"/>
</linearGradient>
<linearGradient id="paint194_linear" x1="11.378" y1="53.3999" x2="41.2561" y2="53.3999" gradientUnits="userSpaceOnUse">
<stop stop-color="#ED991C"/>
<stop offset="1" stop-color="#ED1C24"/>
</linearGradient>
<linearGradient id="paint195_linear" x1="11.378" y1="53.3999" x2="41.2561" y2="53.3999" gradientUnits="userSpaceOnUse">
<stop stop-color="#ED991C"/>
<stop offset="1" stop-color="#ED1C24"/>
</linearGradient>
<linearGradient id="paint196_linear" x1="11.378" y1="53.3999" x2="41.2561" y2="53.3999" gradientUnits="userSpaceOnUse">
<stop stop-color="#ED991C"/>
<stop offset="1" stop-color="#ED1C24"/>
</linearGradient>
<linearGradient id="paint197_linear" x1="11.378" y1="53.3999" x2="41.2561" y2="53.3999" gradientUnits="userSpaceOnUse">
<stop stop-color="#ED991C"/>
<stop offset="1" stop-color="#ED1C24"/>
</linearGradient>
<linearGradient id="paint198_linear" x1="11.378" y1="53.3999" x2="41.2561" y2="53.3999" gradientUnits="userSpaceOnUse">
<stop stop-color="#ED991C"/>
<stop offset="1" stop-color="#ED1C24"/>
</linearGradient>
<linearGradient id="paint199_linear" x1="11.378" y1="53.3999" x2="41.2561" y2="53.3999" gradientUnits="userSpaceOnUse">
<stop stop-color="#ED991C"/>
<stop offset="1" stop-color="#ED1C24"/>
</linearGradient>
<linearGradient id="paint200_linear" x1="11.378" y1="53.3999" x2="41.2561" y2="53.3999" gradientUnits="userSpaceOnUse">
<stop stop-color="#ED991C"/>
<stop offset="1" stop-color="#ED1C24"/>
</linearGradient>
<linearGradient id="paint201_linear" x1="11.378" y1="53.3999" x2="41.2561" y2="53.3999" gradientUnits="userSpaceOnUse">
<stop stop-color="#ED991C"/>
<stop offset="1" stop-color="#ED1C24"/>
</linearGradient>
<linearGradient id="paint202_linear" x1="11.378" y1="53.3999" x2="41.2561" y2="53.3999" gradientUnits="userSpaceOnUse">
<stop stop-color="#ED991C"/>
<stop offset="1" stop-color="#ED1C24"/>
</linearGradient>
<linearGradient id="paint203_linear" x1="11.378" y1="53.3999" x2="41.2561" y2="53.3999" gradientUnits="userSpaceOnUse">
<stop stop-color="#ED991C"/>
<stop offset="1" stop-color="#ED1C24"/>
</linearGradient>
<linearGradient id="paint204_linear" x1="11.378" y1="53.3999" x2="41.2561" y2="53.3999" gradientUnits="userSpaceOnUse">
<stop stop-color="#ED991C"/>
<stop offset="1" stop-color="#ED1C24"/>
</linearGradient>
<linearGradient id="paint205_linear" x1="11.378" y1="53.3999" x2="41.2561" y2="53.3999" gradientUnits="userSpaceOnUse">
<stop stop-color="#ED991C"/>
<stop offset="1" stop-color="#ED1C24"/>
</linearGradient>
<linearGradient id="paint206_linear" x1="11.378" y1="53.3999" x2="41.2561" y2="53.3999" gradientUnits="userSpaceOnUse">
<stop stop-color="#ED991C"/>
<stop offset="1" stop-color="#ED1C24"/>
</linearGradient>
<clipPath id="clip0">
<path d="M6 9H55V51H6V9Z" fill="white"/>
</clipPath>
</defs>
</svg>
