<svg width="60" height="60" viewBox="0 0 60 60" fill="none" xmlns="http://www.w3.org/2000/svg">
<rect width="60" height="60" fill="white"/>
<path fill-rule="evenodd" clip-rule="evenodd" d="M40.9717 23.2993H46.1687C46.6264 23.2993 46.9997 22.9249 46.9997 22.4659V10.8401C46.9997 10.3811 46.6264 10.0066 46.1687 10.0066H40.9717C40.514 10.0066 40.1407 10.3811 40.1407 10.8401V15.8165H32.3843C32.023 14.6086 30.9149 13.7148 29.5961 13.7148C28.2713 13.7148 27.1692 14.6026 26.8019 15.8165H18.8649V10.8401C18.8649 10.3811 18.4915 10.0066 18.0338 10.0066H12.8368C12.3791 10.0066 12.0058 10.3811 12.0058 10.8401V22.4659C12.0058 22.9249 12.3791 23.2993 12.8368 23.2993H18.0338C18.4915 23.2993 18.8649 22.9249 18.8649 22.4659V17.4894H26.8019C27.0849 18.4316 27.8196 19.1684 28.759 19.4522V40.5538C27.8196 40.8377 27.0849 41.5745 26.8019 42.5166H18.8649V37.5402C18.8649 37.0812 18.4915 36.7068 18.0338 36.7068H12.8368C12.3791 36.7068 12.0058 37.0812 12.0058 37.5402V49.166C12.0058 49.625 12.3791 49.9994 12.8368 49.9994H18.0338C18.4915 49.9994 18.8649 49.625 18.8649 49.166V44.1896H26.8019C27.1632 45.3974 28.2713 46.2913 29.5961 46.2913C30.9209 46.2913 32.023 45.4035 32.3843 44.1896H40.1407V49.166C40.1407 49.625 40.514 49.9994 40.9717 49.9994H46.1687C46.6264 49.9994 46.9997 49.625 46.9997 49.166V37.5402C46.9997 37.0812 46.6264 36.7068 46.1687 36.7068H40.9717C40.514 36.7068 40.1407 37.0812 40.1407 37.5402V42.5166H32.3843C32.1013 41.5745 31.3666 40.8377 30.4271 40.5538V19.4522C31.3666 19.1684 32.1013 18.4316 32.3843 17.4894H40.1407V22.4659C40.1407 22.9249 40.514 23.2993 40.9717 23.2993ZM17.1968 21.6264H13.6678V11.6675H17.1968V21.6264ZM17.1968 48.3265H13.6678V38.3676H17.1968V48.3265V48.3265ZM41.8088 38.3676H45.3377V48.3265H41.8088V38.3676ZM30.8547 43.344C30.8547 44.0386 30.2886 44.6063 29.5961 44.6063C28.9036 44.6063 28.3375 44.0386 28.3375 43.344C28.3375 42.6495 28.9036 42.0818 29.5961 42.0818C30.2886 42.0818 30.8547 42.6495 30.8547 43.344V43.344ZM29.5961 17.9061C28.9036 17.9061 28.3375 17.3384 28.3375 16.6439C28.3375 15.9494 28.9036 15.3817 29.5961 15.3817C30.2886 15.3817 30.8547 15.9494 30.8547 16.6439C30.8547 17.3384 30.2886 17.9061 29.5961 17.9061ZM41.8088 11.6614H45.3377V21.6204H41.8088V11.6614Z" fill="#ED1C24"/>
<path fill-rule="evenodd" clip-rule="evenodd" d="M41.55 11.2084H45.651V22.0974H41.55V11.2084Z" fill="#ED1C24"/>
<path fill-rule="evenodd" clip-rule="evenodd" d="M41.55 11.2084H45.651V22.0974H41.55V11.2084Z" fill="white"/>
<path fill-rule="evenodd" clip-rule="evenodd" d="M13.3549 11.2084H17.4499V22.0974H13.3549V11.2084Z" fill="white"/>
<path fill-rule="evenodd" clip-rule="evenodd" d="M41.55 37.9026H45.651V48.7976H41.55V37.9026Z" fill="#ED1C24"/>
<path fill-rule="evenodd" clip-rule="evenodd" d="M41.55 37.9026H45.651V48.7976H41.55V37.9026Z" fill="#ED1C24"/>
<path fill-rule="evenodd" clip-rule="evenodd" d="M13.3549 37.9026H17.4499V48.7976H13.3549V37.9026Z" fill="#ED1C24"/>
</svg>
